<?xml version="1.0" encoding="UTF-8" standalone="no"?>
<svg xmlns="http://www.w3.org/2000/svg"
     xmlns:xlink="http://www.w3.org/1999/xlink"
     width="836px" height="630px" viewBox="0 0 836 630">
<title>UNNAMED</title>
<desc>
Creator: GiD + GL2PS 1.3.8, (C) 1999-2012 C. Geuzaine
For: GiD-gl2ps
CreationDate: Fri Feb 21 18:21:06 2020
</desc>
<defs>
</defs>
<polygon fill="#ffffff" points="0,0 836,0 836,630 0,630"/>
<g shape-rendering="crispEdges">
<text fill="#000000" x="98.9396" y="579.987" font-size="14" text-anchor="start" baseline-shift="0" font-family="Courier">x</text>
<text fill="#000000" x="50.0134" y="531.06" font-size="14" text-anchor="start" baseline-shift="0" font-family="Courier">y</text>
<polygon fill="#b52d2d" points="50.0134,577.631 50.0134,577.803 56.8087,577.631"/>
<polygon fill="#c93232" points="50.0134,577.803 50.0134,577.976 56.8087,577.803"/>
<polygon fill="#b52d2d" points="56.8087,577.631 63.604,577.631 56.8087,577.803"/>
<polygon fill="#bc2f2f" points="50.0134,577.803 56.8087,577.803 56.8087,577.631"/>
<polygon fill="#dd3737" points="50.0134,577.976 50.0134,578.148 56.8087,577.976"/>
<polygon fill="#f13c3c" points="50.0134,578.148 50.0134,578.321 56.8087,578.148"/>
<polygon fill="#dd3737" points="56.8087,577.976 63.604,577.976 56.8087,578.148"/>
<polygon fill="#e43939" points="50.0134,578.148 56.8087,578.148 56.8087,577.976"/>
<polygon fill="#b52d2d" points="63.604,577.631 70.3993,577.631 63.604,577.803"/>
<polygon fill="#b52d2d" points="70.3993,577.631 77.1946,577.631 70.3993,577.803"/>
<polygon fill="#c93232" points="63.604,577.803 63.604,577.976 70.3993,577.803"/>
<polygon fill="#bc2f2f" points="70.3993,577.631 70.3993,577.803 63.604,577.803"/>
<polygon fill="#d03434" points="50.0134,577.976 56.8087,577.976 56.8087,577.803"/>
<polygon fill="#d03434" points="56.8087,577.976 63.604,577.976 63.604,577.803"/>
<polygon fill="#bc2f2f" points="56.8087,577.803 63.604,577.631 63.604,577.803"/>
<polygon fill="#c93232" points="56.8087,577.976 63.604,577.803 56.8087,577.803"/>
<polygon fill="#581616" points="50.0134,582.342 63.604,582.342 63.604,581.997"/>
<polygon fill="#581616" points="63.604,582.342 77.1946,582.342 77.1946,581.997"/>
<polygon fill="#6e1b1b" points="63.604,581.997 77.1946,581.652 77.1946,581.997"/>
<polygon fill="#601818" points="63.604,582.342 77.1946,581.997 63.604,581.997"/>
<polygon fill="#2db52d" points="52.3691,579.987 52.3691,573.191 52.1966,573.191"/>
<polygon fill="#2db52d" points="52.3691,573.191 52.3691,566.396 52.1966,566.396"/>
<polygon fill="#32c932" points="52.1966,573.191 52.0241,566.396 52.1966,566.396"/>
<polygon fill="#2fbc2f" points="52.3691,573.191 52.1966,566.396 52.1966,573.191"/>
<polygon fill="#2db52d" points="52.3691,566.396 52.3691,559.601 52.1966,559.601"/>
<polygon fill="#2db52d" points="52.3691,559.601 52.3691,552.805 52.1966,552.805"/>
<polygon fill="#32c932" points="52.1966,559.601 52.0241,552.805 52.1966,552.805"/>
<polygon fill="#2fbc2f" points="52.3691,559.601 52.1966,552.805 52.1966,559.601"/>
<polygon fill="#37dd37" points="52.0241,566.396 51.8516,559.601 52.0241,559.601"/>
<polygon fill="#3cf13c" points="51.8516,559.601 51.6792,552.805 51.8516,552.805"/>
<polygon fill="#37dd37" points="52.0241,559.601 52.0241,552.805 51.8516,552.805"/>
<polygon fill="#39e439" points="51.8516,559.601 51.8516,552.805 52.0241,559.601"/>
<polygon fill="#2fbc2f" points="52.3691,566.396 52.1966,559.601 52.1966,566.396"/>
<polygon fill="#34d034" points="52.1966,559.601 52.0241,552.805 52.0241,559.601"/>
<polygon fill="#34d034" points="52.1966,566.396 52.0241,566.396 52.0241,559.601"/>
<polygon fill="#32c932" points="52.1966,559.601 52.0241,559.601 52.1966,566.396"/>
<polygon fill="#165816" points="47.6577,579.987 48.0027,579.987 47.6577,566.396"/>
<polygon fill="#1b6e1b" points="48.0027,579.987 48.3477,579.987 48.0027,566.396"/>
<polygon fill="#165816" points="47.6577,566.396 47.6577,552.805 48.0027,566.396"/>
<polygon fill="#186018" points="48.0027,579.987 48.0027,566.396 47.6577,566.396"/>
<polygon fill="#f83e3e" points="50.0134,578.321 56.8087,578.321 56.8087,578.148"/>
<polygon fill="#f83e3e" points="56.8087,578.321 63.604,578.321 63.604,578.148"/>
<polygon fill="#e43939" points="56.8087,578.148 63.604,577.976 63.604,578.148"/>
<polygon fill="#f13c3c" points="56.8087,578.321 63.604,578.148 56.8087,578.148"/>
<polygon fill="#f83e3e" points="63.604,578.321 70.3993,578.321 70.3993,578.148"/>
<polygon fill="#f83e3e" points="70.3993,578.321 77.1946,578.321 77.1946,578.148"/>
<polygon fill="#e43939" points="70.3993,578.148 77.1946,577.976 77.1946,578.148"/>
<polygon fill="#f13c3c" points="70.3993,578.321 77.1946,578.148 70.3993,578.148"/>
<polygon fill="#d03434" points="63.604,577.976 70.3993,577.803 70.3993,577.976"/>
<polygon fill="#bc2f2f" points="70.3993,577.803 77.1946,577.631 77.1946,577.803"/>
<polygon fill="#d03434" points="70.3993,577.976 77.1946,577.976 77.1946,577.803"/>
<polygon fill="#c93232" points="70.3993,577.803 77.1946,577.803 70.3993,577.976"/>
<polygon fill="#f13c3c" points="63.604,578.321 70.3993,578.148 63.604,578.148"/>
<polygon fill="#dd3737" points="70.3993,578.148 77.1946,577.976 70.3993,577.976"/>
<polygon fill="#dd3737" points="63.604,578.148 63.604,577.976 70.3993,577.976"/>
<polygon fill="#e43939" points="70.3993,578.148 70.3993,577.976 63.604,578.148"/>
<polygon fill="#761d1d" points="50.0134,581.652 50.0134,581.997 63.604,581.652"/>
<polygon fill="#601818" points="50.0134,581.997 50.0134,582.342 63.604,581.997"/>
<polygon fill="#761d1d" points="63.604,581.652 77.1946,581.652 63.604,581.997"/>
<polygon fill="#6e1b1b" points="50.0134,581.997 63.604,581.997 63.604,581.652"/>
<polygon fill="#3ef83e" points="51.6792,579.987 51.8516,579.987 51.6792,573.191"/>
<polygon fill="#39e439" points="51.8516,579.987 52.0241,579.987 51.8516,573.191"/>
<polygon fill="#3ef83e" points="51.6792,573.191 51.6792,566.396 51.8516,573.191"/>
<polygon fill="#3cf13c" points="51.8516,579.987 51.8516,573.191 51.6792,573.191"/>
<polygon fill="#34d034" points="52.0241,579.987 52.1966,579.987 52.0241,573.191"/>
<polygon fill="#2fbc2f" points="52.1966,579.987 52.3691,579.987 52.1966,573.191"/>
<polygon fill="#34d034" points="52.0241,573.191 52.0241,566.396 52.1966,573.191"/>
<polygon fill="#32c932" points="52.1966,579.987 52.1966,573.191 52.0241,573.191"/>
<polygon fill="#3ef83e" points="51.6792,566.396 51.6792,559.601 51.8516,566.396"/>
<polygon fill="#3ef83e" points="51.6792,559.601 51.6792,552.805 51.8516,559.601"/>
<polygon fill="#39e439" points="51.8516,566.396 52.0241,566.396 51.8516,559.601"/>
<polygon fill="#3cf13c" points="51.6792,559.601 51.8516,559.601 51.8516,566.396"/>
<polygon fill="#37dd37" points="52.0241,579.987 52.0241,573.191 51.8516,573.191"/>
<polygon fill="#37dd37" points="52.0241,573.191 52.0241,566.396 51.8516,566.396"/>
<polygon fill="#3cf13c" points="51.8516,573.191 51.6792,566.396 51.8516,566.396"/>
<polygon fill="#39e439" points="52.0241,573.191 51.8516,566.396 51.8516,573.191"/>
<polygon fill="#1d761d" points="48.3477,579.987 48.3477,566.396 48.0027,566.396"/>
<polygon fill="#1d761d" points="48.3477,566.396 48.3477,552.805 48.0027,552.805"/>
<polygon fill="#186018" points="48.0027,566.396 47.6577,552.805 48.0027,552.805"/>
<polygon fill="#1b6e1b" points="48.3477,566.396 48.0027,552.805 48.0027,566.396"/>
<polyline fill="none" stroke="#999999" stroke-width="1" points="599.215,471.559 538.038,471.559 538.038,535.234 599.215,535.234 599.215,471.559"/>
<polyline fill="none" stroke="#999999" stroke-width="1" points="599.215,407.885 538.038,407.885 538.038,471.559 599.215,471.559 599.215,407.885"/>
<polyline fill="none" stroke="#999999" stroke-width="1" points="599.215,344.21 538.038,344.21 538.038,407.885 599.215,407.885 599.215,344.21"/>
<polyline fill="none" stroke="#999999" stroke-width="1" points="599.215,280.535 538.038,280.535 538.038,344.21 599.215,344.21 599.215,280.535"/>
<polyline fill="none" stroke="#999999" stroke-width="1" points="599.215,216.861 538.038,216.861 538.038,280.535 599.215,280.535 599.215,216.861"/>
<polyline fill="none" stroke="#999999" stroke-width="1" points="599.215,153.186 538.038,153.186 538.038,216.861 599.215,216.861 599.215,153.186"/>
<polyline fill="none" stroke="#999999" stroke-width="1" points="599.215,89.5117 538.038,89.5117 538.038,153.186 599.215,153.186 599.215,89.5117"/>
<polyline fill="none" stroke="#999999" stroke-width="1" points="538.038,471.559 476.86,471.559 476.86,535.234 538.038,535.234 538.038,471.559"/>
<polyline fill="none" stroke="#999999" stroke-width="1" points="538.038,407.885 476.86,407.885 476.86,471.559 538.038,471.559 538.038,407.885"/>
<polyline fill="none" stroke="#999999" stroke-width="1" points="538.038,344.21 476.86,344.21 476.86,407.885 538.038,407.885 538.038,344.21"/>
<polyline fill="none" stroke="#999999" stroke-width="1" points="538.038,280.535 476.86,280.535 476.86,344.21 538.038,344.21 538.038,280.535"/>
<polyline fill="none" stroke="#999999" stroke-width="1" points="538.038,216.861 476.86,216.861 476.86,280.535 538.038,280.535 538.038,216.861"/>
<polyline fill="none" stroke="#999999" stroke-width="1" points="538.038,153.186 476.86,153.186 476.86,216.861 538.038,216.861 538.038,153.186"/>
<polyline fill="none" stroke="#999999" stroke-width="1" points="538.038,89.5117 476.86,89.5117 476.86,153.186 538.038,153.186 538.038,89.5117"/>
<polyline fill="none" stroke="#999999" stroke-width="1" points="476.86,471.559 415.683,471.559 415.683,535.234 476.86,535.234 476.86,471.559"/>
<polyline fill="none" stroke="#999999" stroke-width="1" points="476.86,407.885 415.683,407.885 415.683,471.559 476.86,471.559 476.86,407.885"/>
<polyline fill="none" stroke="#999999" stroke-width="1" points="476.86,344.21 415.683,344.21 415.683,407.885 476.86,407.885 476.86,344.21"/>
<polyline fill="none" stroke="#999999" stroke-width="1" points="476.86,280.535 415.683,280.535 415.683,344.21 476.86,344.21 476.86,280.535"/>
<polyline fill="none" stroke="#999999" stroke-width="1" points="476.86,216.861 415.683,216.861 415.683,280.535 476.86,280.535 476.86,216.861"/>
<polyline fill="none" stroke="#999999" stroke-width="1" points="476.86,153.186 415.683,153.186 415.683,216.861 476.86,216.861 476.86,153.186"/>
<polyline fill="none" stroke="#999999" stroke-width="1" points="476.86,89.5117 415.683,89.5117 415.683,153.186 476.86,153.186 476.86,89.5117"/>
<polyline fill="none" stroke="#999999" stroke-width="1" points="415.683,471.559 354.505,471.559 354.505,535.234 415.683,535.234 415.683,471.559"/>
<polyline fill="none" stroke="#999999" stroke-width="1" points="415.683,407.885 354.505,407.885 354.505,471.559 415.683,471.559 415.683,407.885"/>
<polyline fill="none" stroke="#999999" stroke-width="1" points="415.683,344.21 354.505,344.21 354.505,407.885 415.683,407.885 415.683,344.21"/>
<polyline fill="none" stroke="#999999" stroke-width="1" points="415.683,280.535 354.505,280.535 354.505,344.21 415.683,344.21 415.683,280.535"/>
<polyline fill="none" stroke="#999999" stroke-width="1" points="415.683,216.861 354.505,216.861 354.505,280.535 415.683,280.535 415.683,216.861"/>
<polyline fill="none" stroke="#999999" stroke-width="1" points="415.683,153.186 354.505,153.186 354.505,216.861 415.683,216.861 415.683,153.186"/>
<polyline fill="none" stroke="#999999" stroke-width="1" points="415.683,89.5117 354.505,89.5117 354.505,153.186 415.683,153.186 415.683,89.5117"/>
<polyline fill="none" stroke="#999999" stroke-width="1" points="354.505,471.559 293.328,471.559 293.328,535.234 354.505,535.234 354.505,471.559"/>
<polyline fill="none" stroke="#999999" stroke-width="1" points="354.505,407.885 293.328,407.885 293.328,471.559 354.505,471.559 354.505,407.885"/>
<polyline fill="none" stroke="#999999" stroke-width="1" points="354.505,344.21 293.328,344.21 293.328,407.885 354.505,407.885 354.505,344.21"/>
<polyline fill="none" stroke="#999999" stroke-width="1" points="354.505,280.535 293.328,280.535 293.328,344.21 354.505,344.21 354.505,280.535"/>
<polyline fill="none" stroke="#999999" stroke-width="1" points="354.505,216.861 293.328,216.861 293.328,280.535 354.505,280.535 354.505,216.861"/>
<polyline fill="none" stroke="#999999" stroke-width="1" points="354.505,153.186 293.328,153.186 293.328,216.861 354.505,216.861 354.505,153.186"/>
<polyline fill="none" stroke="#999999" stroke-width="1" points="354.505,89.5117 293.328,89.5117 293.328,153.186 354.505,153.186 354.505,89.5117"/>
<polyline fill="none" stroke="#999999" stroke-width="1" points="293.328,471.559 232.15,471.559 232.15,535.234 293.328,535.234 293.328,471.559"/>
<polyline fill="none" stroke="#999999" stroke-width="1" points="293.328,407.885 232.15,407.885 232.15,471.559 293.328,471.559 293.328,407.885"/>
<polyline fill="none" stroke="#999999" stroke-width="1" points="293.328,344.21 232.15,344.21 232.15,407.885 293.328,407.885 293.328,344.21"/>
<polyline fill="none" stroke="#999999" stroke-width="1" points="293.328,280.535 232.15,280.535 232.15,344.21 293.328,344.21 293.328,280.535"/>
<polyline fill="none" stroke="#999999" stroke-width="1" points="293.328,216.861 232.15,216.861 232.15,280.535 293.328,280.535 293.328,216.861"/>
<polyline fill="none" stroke="#999999" stroke-width="1" points="293.328,153.186 232.15,153.186 232.15,216.861 293.328,216.861 293.328,153.186"/>
<polyline fill="none" stroke="#999999" stroke-width="1" points="293.328,89.5117 232.15,89.5117 232.15,153.186 293.328,153.186 293.328,89.5117"/>
<polygon fill="#df3737" points="93.5034,579.987 85.349,576.725 85.349,577.68"/>
<polygon fill="#c53131" points="85.349,576.725 77.1946,573.463 77.1946,574.418"/>
<polygon fill="#ed3b3b" points="85.349,577.68 77.1946,575.374 77.1946,574.418"/>
<polygon fill="#d23434" points="85.349,576.725 81.2718,575.572 85.349,577.203"/>
<polygon fill="#d93636" points="81.2718,575.572 77.1946,574.418 81.2718,576.049"/>
<polygon fill="#e63939" points="85.349,577.203 85.349,577.68 81.2718,576.049"/>
<polygon fill="#db3636" points="81.2718,575.572 81.2718,576.049 85.349,577.203"/>
<polygon fill="#581616" points="93.5034,579.987 85.349,582.293 85.349,583.248"/>
<polygon fill="#6e1b1b" points="85.349,582.293 77.1946,584.599 77.1946,585.555"/>
<polygon fill="#581616" points="85.349,583.248 77.1946,586.51 77.1946,585.555"/>
<polygon fill="#601818" points="85.349,582.293 77.1946,585.555 85.349,583.248"/>
<polygon fill="#37df37" points="50.0134,536.497 52.3198,544.651 53.2752,544.651"/>
<polygon fill="#3bed3b" points="52.3198,544.651 54.6262,552.805 55.5816,552.805"/>
<polygon fill="#31c531" points="53.2752,544.651 56.5369,552.805 55.5816,552.805"/>
<polygon fill="#39e639" points="52.3198,544.651 53.9507,548.728 52.7975,544.651"/>
<polygon fill="#36d936" points="53.9507,548.728 55.5816,552.805 54.4284,548.728"/>
<polygon fill="#34d234" points="52.7975,544.651 53.2752,544.651 54.4284,548.728"/>
<polygon fill="#36db36" points="53.9507,548.728 54.4284,548.728 52.7975,544.651"/>
<polygon fill="#165816" points="50.0134,536.497 46.7517,544.651 47.707,544.651"/>
<polygon fill="#165816" points="46.7517,544.651 43.4899,552.805 44.4453,552.805"/>
<polygon fill="#1b6e1b" points="47.707,544.651 45.4006,552.805 44.4453,552.805"/>
<polygon fill="#186018" points="46.7517,544.651 44.4453,552.805 47.707,544.651"/>
<polygon fill="#f93e3e" points="50.0134,578.321 50.0134,579.987 77.1946,578.321"/>
<polygon fill="#862121" points="50.0134,581.652 56.8087,581.652 56.8087,581.236"/>
<polygon fill="#862121" points="56.8087,581.652 63.604,581.652 63.604,581.236"/>
<polygon fill="#a22828" points="56.8087,581.236 63.604,580.819 63.604,581.236"/>
<polygon fill="#902424" points="56.8087,581.652 63.604,581.236 56.8087,581.236"/>
<polygon fill="#862121" points="63.604,581.652 70.3993,581.652 70.3993,581.236"/>
<polygon fill="#862121" points="70.3993,581.652 77.1946,581.652 77.1946,581.236"/>
<polygon fill="#a22828" points="70.3993,581.236 77.1946,580.819 77.1946,581.236"/>
<polygon fill="#902424" points="70.3993,581.652 77.1946,581.236 70.3993,581.236"/>
<polygon fill="#be2f2f" points="63.604,580.819 70.3993,580.403 70.3993,580.819"/>
<polygon fill="#da3636" points="70.3993,580.403 77.1946,579.987 77.1946,580.403"/>
<polygon fill="#be2f2f" points="70.3993,580.819 77.1946,580.819 77.1946,580.403"/>
<polygon fill="#c73131" points="70.3993,580.403 77.1946,580.403 70.3993,580.819"/>
<polygon fill="#902424" points="63.604,581.652 70.3993,581.236 63.604,581.236"/>
<polygon fill="#ac2b2b" points="70.3993,581.236 77.1946,580.819 70.3993,580.819"/>
<polygon fill="#ac2b2b" points="63.604,581.236 63.604,580.819 70.3993,580.819"/>
<polygon fill="#a22828" points="70.3993,581.236 70.3993,580.819 63.604,581.236"/>
<polygon fill="#3ef93e" points="51.6792,579.987 51.6792,552.805 50.0134,552.805"/>
<polygon fill="#218621" points="48.3477,579.987 48.7641,579.987 48.3477,573.191"/>
<polygon fill="#28a228" points="48.7641,579.987 49.1806,579.987 48.7641,573.191"/>
<polygon fill="#218621" points="48.3477,573.191 48.3477,566.396 48.7641,573.191"/>
<polygon fill="#249024" points="48.7641,579.987 48.7641,573.191 48.3477,573.191"/>
<polygon fill="#2fbe2f" points="49.1806,579.987 49.597,579.987 49.1806,573.191"/>
<polygon fill="#36da36" points="49.597,579.987 50.0134,579.987 49.597,573.191"/>
<polygon fill="#2fbe2f" points="49.1806,573.191 49.1806,566.396 49.597,573.191"/>
<polygon fill="#31c731" points="49.597,579.987 49.597,573.191 49.1806,573.191"/>
<polygon fill="#218621" points="48.3477,566.396 48.3477,559.601 48.7641,566.396"/>
<polygon fill="#218621" points="48.3477,559.601 48.3477,552.805 48.7641,559.601"/>
<polygon fill="#28a228" points="48.7641,566.396 49.1806,566.396 48.7641,559.601"/>
<polygon fill="#249024" points="48.3477,559.601 48.7641,559.601 48.7641,566.396"/>
<polygon fill="#2bac2b" points="49.1806,579.987 49.1806,573.191 48.7641,573.191"/>
<polygon fill="#2bac2b" points="49.1806,573.191 49.1806,566.396 48.7641,566.396"/>
<polygon fill="#249024" points="48.7641,573.191 48.3477,566.396 48.7641,566.396"/>
<polygon fill="#28a228" points="49.1806,573.191 48.7641,566.396 48.7641,573.191"/>
<polygon fill="#f33c3c" points="50.0134,579.987 77.1946,579.987 77.1946,578.321"/>
<polygon fill="#38e338" points="50.0134,579.987 50.0134,573.191 49.597,573.191"/>
<polygon fill="#38e338" points="50.0134,573.191 50.0134,566.396 49.597,566.396"/>
<polygon fill="#31c731" points="49.597,573.191 49.1806,566.396 49.597,566.396"/>
<polygon fill="#36da36" points="50.0134,573.191 49.597,566.396 49.597,573.191"/>
<polygon fill="#38e338" points="50.0134,566.396 50.0134,559.601 49.597,559.601"/>
<polygon fill="#38e338" points="50.0134,559.601 50.0134,552.805 49.597,552.805"/>
<polygon fill="#31c731" points="49.597,559.601 49.1806,552.805 49.597,552.805"/>
<polygon fill="#36da36" points="50.0134,559.601 49.597,552.805 49.597,559.601"/>
<polygon fill="#2bac2b" points="49.1806,566.396 48.7641,559.601 49.1806,559.601"/>
<polygon fill="#249024" points="48.7641,559.601 48.3477,552.805 48.7641,552.805"/>
<polygon fill="#2bac2b" points="49.1806,559.601 49.1806,552.805 48.7641,552.805"/>
<polygon fill="#28a228" points="48.7641,559.601 48.7641,552.805 49.1806,559.601"/>
<polygon fill="#36da36" points="50.0134,566.396 49.597,559.601 49.597,566.396"/>
<polygon fill="#2fbe2f" points="49.597,559.601 49.1806,552.805 49.1806,559.601"/>
<polygon fill="#2fbe2f" points="49.597,566.396 49.1806,566.396 49.1806,559.601"/>
<polygon fill="#31c731" points="49.597,559.601 49.1806,559.601 49.597,566.396"/>
<polygon fill="#e33838" points="50.0134,579.987 50.0134,580.403 56.8087,579.987"/>
<polygon fill="#c73131" points="50.0134,580.403 50.0134,580.819 56.8087,580.403"/>
<polygon fill="#e33838" points="56.8087,579.987 63.604,579.987 56.8087,580.403"/>
<polygon fill="#da3636" points="50.0134,580.403 56.8087,580.403 56.8087,579.987"/>
<polygon fill="#ac2b2b" points="50.0134,580.819 50.0134,581.236 56.8087,580.819"/>
<polygon fill="#902424" points="50.0134,581.236 50.0134,581.652 56.8087,581.236"/>
<polygon fill="#ac2b2b" points="56.8087,580.819 63.604,580.819 56.8087,581.236"/>
<polygon fill="#a22828" points="50.0134,581.236 56.8087,581.236 56.8087,580.819"/>
<polygon fill="#e33838" points="63.604,579.987 70.3993,579.987 63.604,580.403"/>
<polygon fill="#e33838" points="70.3993,579.987 77.1946,579.987 70.3993,580.403"/>
<polygon fill="#c73131" points="63.604,580.403 63.604,580.819 70.3993,580.403"/>
<polygon fill="#da3636" points="70.3993,579.987 70.3993,580.403 63.604,580.403"/>
<polygon fill="#be2f2f" points="50.0134,580.819 56.8087,580.819 56.8087,580.403"/>
<polygon fill="#be2f2f" points="56.8087,580.819 63.604,580.819 63.604,580.403"/>
<polygon fill="#da3636" points="56.8087,580.403 63.604,579.987 63.604,580.403"/>
<polygon fill="#c73131" points="56.8087,580.819 63.604,580.403 56.8087,580.403"/>
<polygon fill="#3cf33c" points="50.0134,579.987 51.6792,579.987 50.0134,552.805"/>
<polygon fill="#f93f3f" points="93.5034,579.987 77.1946,575.374 77.1946,579.987"/>
<polygon fill="#bc2f2f" points="93.5034,579.987 89.4262,579.987 89.4262,581.14"/>
<polygon fill="#c83232" points="89.4262,579.987 85.349,579.987 85.349,581.14"/>
<polygon fill="#ac2b2b" points="89.4262,581.14 85.349,582.293 85.349,581.14"/>
<polygon fill="#ba2e2e" points="89.4262,579.987 85.349,581.14 89.4262,581.14"/>
<polygon fill="#d43535" points="85.349,579.987 81.2718,579.987 81.2718,581.14"/>
<polygon fill="#df3737" points="81.2718,579.987 77.1946,579.987 77.1946,581.14"/>
<polygon fill="#c43131" points="81.2718,581.14 77.1946,582.293 77.1946,581.14"/>
<polygon fill="#d23434" points="81.2718,579.987 77.1946,581.14 81.2718,581.14"/>
<polygon fill="#9c2727" points="85.349,582.293 81.2718,583.446 81.2718,582.293"/>
<polygon fill="#8c2323" points="81.2718,583.446 77.1946,584.599 77.1946,583.446"/>
<polygon fill="#a82a2a" points="81.2718,582.293 77.1946,582.293 77.1946,583.446"/>
<polygon fill="#9a2626" points="81.2718,583.446 77.1946,583.446 81.2718,582.293"/>
<polygon fill="#c63131" points="85.349,579.987 81.2718,581.14 85.349,581.14"/>
<polygon fill="#b62d2d" points="81.2718,581.14 77.1946,582.293 81.2718,582.293"/>
<polygon fill="#aa2a2a" points="85.349,581.14 85.349,582.293 81.2718,582.293"/>
<polygon fill="#b82e2e" points="81.2718,581.14 81.2718,582.293 85.349,581.14"/>
<polygon fill="#3ff93f" points="50.0134,536.497 50.0134,552.805 54.6262,552.805"/>
<polygon fill="#2fbc2f" points="50.0134,536.497 48.8602,540.574 50.0134,540.574"/>
<polygon fill="#2bac2b" points="48.8602,540.574 47.707,544.651 48.8602,544.651"/>
<polygon fill="#32c832" points="50.0134,540.574 50.0134,544.651 48.8602,544.651"/>
<polygon fill="#2eba2e" points="48.8602,540.574 48.8602,544.651 50.0134,540.574"/>
<polygon fill="#279c27" points="47.707,544.651 46.5538,548.728 47.707,548.728"/>
<polygon fill="#238c23" points="46.5538,548.728 45.4006,552.805 46.5538,552.805"/>
<polygon fill="#2aa82a" points="47.707,548.728 47.707,552.805 46.5538,552.805"/>
<polygon fill="#269a26" points="46.5538,548.728 46.5538,552.805 47.707,548.728"/>
<polygon fill="#35d435" points="50.0134,544.651 50.0134,548.728 48.8602,548.728"/>
<polygon fill="#37df37" points="50.0134,548.728 50.0134,552.805 48.8602,552.805"/>
<polygon fill="#31c431" points="48.8602,548.728 47.707,552.805 48.8602,552.805"/>
<polygon fill="#34d234" points="50.0134,548.728 48.8602,552.805 48.8602,548.728"/>
<polygon fill="#2aaa2a" points="47.707,544.651 47.707,548.728 48.8602,544.651"/>
<polygon fill="#2db62d" points="47.707,548.728 47.707,552.805 48.8602,548.728"/>
<polygon fill="#31c631" points="48.8602,544.651 50.0134,544.651 48.8602,548.728"/>
<polygon fill="#2eb82e" points="47.707,548.728 48.8602,548.728 48.8602,544.651"/>
<polygon fill="#3194c5" points="50.0134,579.987 56.5369,579.987 54.6262,575.374"/>
<polygon fill="#3194c5" points="50.0134,579.987 54.6262,575.374 50.0134,573.463"/>
<polygon fill="#206282" points="50.0134,579.987 50.0134,576.725 47.707,577.68"/>
<polygon fill="#267298" points="50.0134,576.725 50.0134,573.463 47.707,574.418"/>
<polygon fill="#1a4f69" points="47.707,577.68 45.4006,575.374 47.707,574.418"/>
<polygon fill="#236a8d" points="50.0134,576.725 48.8602,575.572 48.8602,577.203"/>
<polygon fill="#206080" points="48.8602,575.572 47.707,574.418 47.707,576.049"/>
<polygon fill="#1d5876" points="48.8602,577.203 47.707,577.68 47.707,576.049"/>
<polygon fill="#206181" points="48.8602,575.572 47.707,576.049 48.8602,577.203"/>
<polygon fill="#143d51" points="50.0134,579.987 45.4006,575.374 43.4899,579.987"/>
<polygon fill="#143d51" points="50.0134,579.987 43.4899,579.987 45.4006,584.599"/>
<polygon fill="#143d51" points="50.0134,579.987 45.4006,584.599 50.0134,586.51"/>
<polygon fill="#143d51" points="50.0134,579.987 50.0134,586.51 54.6262,584.599"/>
<polygon fill="#206282" points="50.0134,579.987 52.3198,582.293 53.2752,579.987"/>
<polygon fill="#1a4f69" points="52.3198,582.293 54.6262,584.599 55.5816,582.293"/>
<polygon fill="#267298" points="53.2752,579.987 56.5369,579.987 55.5816,582.293"/>
<polygon fill="#1d5876" points="52.3198,582.293 53.9507,582.293 52.7975,581.14"/>
<polygon fill="#206080" points="53.9507,582.293 55.5816,582.293 54.4284,581.14"/>
<polygon fill="#236a8d" points="52.7975,581.14 53.2752,579.987 54.4284,581.14"/>
<polygon fill="#206181" points="53.9507,582.293 54.4284,581.14 52.7975,581.14"/>
<text fill="#000000" x="50.0134" y="579.987" font-size="14" text-anchor="start" baseline-shift="0" font-family="Courier">z</text>
<polygon fill="#000000" points="796,630 836,630 796,606"/>
<polygon fill="#000000" points="836,630 836,606 796,606"/>
<text fill="#ffff00" x="800.18" y="624.775" font-size="0" text-anchor="start" baseline-shift="0" font-family="Courier">GiD</text>
</g>
</svg>
