<?xml version="1.0" encoding="UTF-8" standalone="no"?>
<svg xmlns="http://www.w3.org/2000/svg"
     xmlns:xlink="http://www.w3.org/1999/xlink"
     width="1468px" height="874px" viewBox="0 0 1468 874">
<title>UNNAMED</title>
<desc>
Creator: GiD + GL2PS 1.3.8, (C) 1999-2012 C. Geuzaine
For: GiD-gl2ps
CreationDate: Thu Mar 26 12:39:03 2020
</desc>
<defs>
</defs>
<polygon fill="#ffffff" points="0,0 1468,0 1468,874 0,874"/>
<g shape-rendering="crispEdges">
<text fill="#000000" x="98.9395" y="823.987" font-size="14" text-anchor="start" baseline-shift="0" font-family="Courier">x</text>
<text fill="#000000" x="50.0132" y="775.061" font-size="14" text-anchor="start" baseline-shift="0" font-family="Courier">y</text>
<polygon fill="#b52d2d" points="50.0132,821.631 56.8086,821.803 56.8086,821.631"/>
<polygon fill="#c93232" points="56.8086,821.803 63.604,821.976 63.604,821.803"/>
<polygon fill="#b52d2d" points="56.8086,821.631 63.604,821.631 63.604,821.803"/>
<polygon fill="#bc2f2f" points="56.8086,821.803 63.604,821.803 56.8086,821.631"/>
<polygon fill="#dd3737" points="63.604,821.976 70.3994,822.148 70.3994,821.976"/>
<polygon fill="#f13c3c" points="70.3994,822.148 77.1948,822.321 77.1948,822.148"/>
<polygon fill="#dd3737" points="70.3994,821.976 77.1948,821.976 77.1948,822.148"/>
<polygon fill="#e43939" points="70.3994,822.148 77.1948,822.148 70.3994,821.976"/>
<polygon fill="#b52d2d" points="63.604,821.631 70.3994,821.631 70.3994,821.803"/>
<polygon fill="#b52d2d" points="70.3994,821.631 77.1948,821.631 77.1948,821.803"/>
<polygon fill="#c93232" points="70.3994,821.803 77.1948,821.976 77.1948,821.803"/>
<polygon fill="#bc2f2f" points="70.3994,821.631 77.1948,821.803 70.3994,821.803"/>
<polygon fill="#d03434" points="63.604,821.976 70.3994,821.976 63.604,821.803"/>
<polygon fill="#d03434" points="70.3994,821.976 77.1948,821.976 70.3994,821.803"/>
<polygon fill="#bc2f2f" points="63.604,821.803 63.604,821.631 70.3994,821.803"/>
<polygon fill="#c93232" points="70.3994,821.976 70.3994,821.803 63.604,821.803"/>
<polygon fill="#6e1b1b" points="50.0132,825.652 50.0132,825.997 63.604,825.997"/>
<polygon fill="#581616" points="50.0132,825.997 50.0132,826.342 63.604,826.342"/>
<polygon fill="#581616" points="63.604,825.997 77.1948,826.342 63.604,826.342"/>
<polygon fill="#601818" points="50.0132,825.997 63.604,826.342 63.604,825.997"/>
<polygon fill="#3cf13c" points="51.6792,823.987 51.8517,823.987 51.8517,817.191"/>
<polygon fill="#37dd37" points="51.8517,823.987 52.0242,823.987 52.0242,817.191"/>
<polygon fill="#37dd37" points="51.8517,817.191 52.0242,810.396 52.0242,817.191"/>
<polygon fill="#39e439" points="51.8517,823.987 52.0242,817.191 51.8517,817.191"/>
<polygon fill="#32c932" points="52.0242,823.987 52.1967,823.987 52.1967,817.191"/>
<polygon fill="#2db52d" points="52.1967,823.987 52.3691,823.987 52.3691,817.191"/>
<polygon fill="#2db52d" points="52.1967,817.191 52.3691,810.396 52.3691,817.191"/>
<polygon fill="#2fbc2f" points="52.1967,823.987 52.3691,817.191 52.1967,817.191"/>
<polygon fill="#32c932" points="52.0242,810.396 52.1967,803.601 52.1967,810.396"/>
<polygon fill="#2db52d" points="52.1967,803.601 52.3691,796.805 52.3691,803.601"/>
<polygon fill="#2db52d" points="52.1967,810.396 52.3691,810.396 52.3691,803.601"/>
<polygon fill="#2fbc2f" points="52.1967,803.601 52.3691,803.601 52.1967,810.396"/>
<polygon fill="#34d034" points="52.0242,823.987 52.1967,817.191 52.0242,817.191"/>
<polygon fill="#2fbc2f" points="52.1967,817.191 52.3691,810.396 52.1967,810.396"/>
<polygon fill="#34d034" points="52.0242,817.191 52.0242,810.396 52.1967,810.396"/>
<polygon fill="#32c932" points="52.1967,817.191 52.1967,810.396 52.0242,817.191"/>
<polygon fill="#165816" points="47.6577,823.987 48.0027,810.396 47.6577,810.396"/>
<polygon fill="#1b6e1b" points="48.0027,810.396 48.3477,796.805 48.0027,796.805"/>
<polygon fill="#165816" points="47.6577,810.396 47.6577,796.805 48.0027,796.805"/>
<polygon fill="#186018" points="48.0027,810.396 48.0027,796.805 47.6577,810.396"/>
<polygon fill="#bc2f2f" points="50.0132,821.631 50.0132,821.803 56.8086,821.803"/>
<polygon fill="#d03434" points="50.0132,821.803 50.0132,821.976 56.8086,821.976"/>
<polygon fill="#d03434" points="56.8086,821.803 63.604,821.976 56.8086,821.976"/>
<polygon fill="#c93232" points="50.0132,821.803 56.8086,821.976 56.8086,821.803"/>
<polygon fill="#e43939" points="50.0132,821.976 50.0132,822.148 56.8086,822.148"/>
<polygon fill="#f83e3e" points="50.0132,822.148 50.0132,822.321 56.8086,822.321"/>
<polygon fill="#f83e3e" points="56.8086,822.148 63.604,822.321 56.8086,822.321"/>
<polygon fill="#f13c3c" points="50.0132,822.148 56.8086,822.321 56.8086,822.148"/>
<polygon fill="#e43939" points="63.604,821.976 70.3994,822.148 63.604,822.148"/>
<polygon fill="#f83e3e" points="70.3994,822.148 77.1948,822.321 70.3994,822.321"/>
<polygon fill="#f83e3e" points="63.604,822.148 63.604,822.321 70.3994,822.321"/>
<polygon fill="#f13c3c" points="70.3994,822.148 70.3994,822.321 63.604,822.148"/>
<polygon fill="#dd3737" points="50.0132,821.976 56.8086,822.148 56.8086,821.976"/>
<polygon fill="#f13c3c" points="56.8086,822.148 63.604,822.321 63.604,822.148"/>
<polygon fill="#dd3737" points="56.8086,821.976 63.604,821.976 63.604,822.148"/>
<polygon fill="#e43939" points="56.8086,822.148 63.604,822.148 56.8086,821.976"/>
<polygon fill="#761d1d" points="50.0132,825.652 63.604,825.997 63.604,825.652"/>
<polygon fill="#601818" points="63.604,825.997 77.1948,826.342 77.1948,825.997"/>
<polygon fill="#761d1d" points="63.604,825.652 77.1948,825.652 77.1948,825.997"/>
<polygon fill="#6e1b1b" points="63.604,825.997 77.1948,825.997 63.604,825.652"/>
<polygon fill="#3ef83e" points="51.6792,823.987 51.8517,817.191 51.6792,817.191"/>
<polygon fill="#39e439" points="51.8517,817.191 52.0242,810.396 51.8517,810.396"/>
<polygon fill="#3ef83e" points="51.6792,817.191 51.6792,810.396 51.8517,810.396"/>
<polygon fill="#3cf13c" points="51.8517,817.191 51.8517,810.396 51.6792,817.191"/>
<polygon fill="#34d034" points="52.0242,810.396 52.1967,803.601 52.0242,803.601"/>
<polygon fill="#2fbc2f" points="52.1967,803.601 52.3691,796.805 52.1967,796.805"/>
<polygon fill="#34d034" points="52.0242,803.601 52.0242,796.805 52.1967,796.805"/>
<polygon fill="#32c932" points="52.1967,803.601 52.1967,796.805 52.0242,803.601"/>
<polygon fill="#3ef83e" points="51.6792,810.396 51.6792,803.601 51.8517,803.601"/>
<polygon fill="#3ef83e" points="51.6792,803.601 51.6792,796.805 51.8517,796.805"/>
<polygon fill="#39e439" points="51.8517,803.601 52.0242,796.805 51.8517,796.805"/>
<polygon fill="#3cf13c" points="51.6792,803.601 51.8517,796.805 51.8517,803.601"/>
<polygon fill="#37dd37" points="52.0242,810.396 52.0242,803.601 51.8517,810.396"/>
<polygon fill="#37dd37" points="52.0242,803.601 52.0242,796.805 51.8517,803.601"/>
<polygon fill="#3cf13c" points="51.8517,810.396 51.6792,810.396 51.8517,803.601"/>
<polygon fill="#39e439" points="52.0242,803.601 51.8517,803.601 51.8517,810.396"/>
<polygon fill="#186018" points="47.6577,823.987 48.0027,823.987 48.0027,810.396"/>
<polygon fill="#1d761d" points="48.0027,823.987 48.3477,823.987 48.3477,810.396"/>
<polygon fill="#1d761d" points="48.0027,810.396 48.3477,796.805 48.3477,810.396"/>
<polygon fill="#1b6e1b" points="48.0027,823.987 48.3477,810.396 48.0027,810.396"/>
<polyline fill="none" stroke="#ff0000" stroke-width="1" points="1081.32,121.19 1029.87,121.19 1081.32,172.648 1081.32,121.19"/>
<polyline fill="none" stroke="#ff0000" stroke-width="1" points="360.921,224.105 360.921,275.562 414.361,249.834 360.921,224.105"/>
<polyline fill="none" stroke="#ff0000" stroke-width="1" points="566.75,841.593 618.208,841.593 592.479,788.153 566.75,841.593"/>
<polyline fill="none" stroke="#ff0000" stroke-width="1" points="1081.32,532.849 1081.32,481.392 1027.88,507.121 1081.32,532.849"/>
<polyline fill="none" stroke="#ff0000" stroke-width="1" points="669.665,121.19 618.208,121.19 641.621,168.032 669.665,121.19"/>
<polyline fill="none" stroke="#ff0000" stroke-width="1" points="360.921,635.764 360.921,687.221 414.361,661.493 360.921,635.764"/>
<polyline fill="none" stroke="#ff0000" stroke-width="1" points="978.409,841.593 1029.87,841.593 1011.21,776.001 978.409,841.593"/>
<polyline fill="none" stroke="#ff0000" stroke-width="1" points="875.495,121.19 824.037,121.19 849.766,174.631 875.495,121.19"/>
<polyline fill="none" stroke="#ff0000" stroke-width="1" points="360.921,429.935 360.921,481.392 414.361,455.663 360.921,429.935"/>
<polyline fill="none" stroke="#ff0000" stroke-width="1" points="772.58,841.593 824.037,841.593 798.309,788.153 772.58,841.593"/>
<polyline fill="none" stroke="#ff0000" stroke-width="1" points="1081.32,327.02 1081.32,275.562 1027.88,301.291 1081.32,327.02"/>
<polyline fill="none" stroke="#ff0000" stroke-width="1" points="463.836,121.19 412.378,121.19 426.513,191.309 463.836,121.19"/>
<polyline fill="none" stroke="#ff0000" stroke-width="1" points="360.921,841.593 412.378,841.593 360.921,790.136 360.921,841.593"/>
<polyline fill="none" stroke="#ff0000" stroke-width="1" points="1081.32,738.679 1081.32,687.221 1027.88,712.95 1081.32,738.679"/>
<polyline fill="none" stroke="#ff0000" stroke-width="1" points="978.409,121.19 926.952,121.19 952.681,174.631 978.409,121.19"/>
<polyline fill="none" stroke="#ff0000" stroke-width="1" points="360.921,327.02 360.921,378.477 414.361,352.749 360.921,327.02"/>
<polyline fill="none" stroke="#ff0000" stroke-width="1" points="669.665,841.593 721.123,841.593 695.394,788.153 669.665,841.593"/>
<polyline fill="none" stroke="#ff0000" stroke-width="1" points="1081.32,429.935 1081.32,378.477 1005.47,398.595 1081.32,429.935"/>
<polyline fill="none" stroke="#ff0000" stroke-width="1" points="566.75,121.19 515.293,121.19 545.538,205.443 566.75,121.19"/>
<polyline fill="none" stroke="#ff0000" stroke-width="1" points="360.921,738.679 360.921,790.136 429.625,775.1 360.921,738.679"/>
<polyline fill="none" stroke="#ff0000" stroke-width="1" points="1081.32,841.593 1081.32,790.136 1029.87,841.593 1081.32,841.593"/>
<polyline fill="none" stroke="#ff0000" stroke-width="1" points="772.58,121.19 721.123,121.19 746.851,174.631 772.58,121.19"/>
<polyline fill="none" stroke="#ff0000" stroke-width="1" points="360.921,532.849 360.921,584.307 414.361,558.578 360.921,532.849"/>
<polyline fill="none" stroke="#ff0000" stroke-width="1" points="875.495,841.593 926.952,841.593 906.369,795.679 875.495,841.593"/>
<polyline fill="none" stroke="#ff0000" stroke-width="1" points="1081.32,224.105 1081.32,172.648 1011.21,186.783 1081.32,224.105"/>
<polyline fill="none" stroke="#ff0000" stroke-width="1" points="360.921,121.19 360.921,172.648 412.378,121.19 360.921,121.19"/>
<polyline fill="none" stroke="#ff0000" stroke-width="1" points="463.836,841.593 515.293,841.593 489.564,788.153 463.836,841.593"/>
<polyline fill="none" stroke="#ff0000" stroke-width="1" points="1081.32,635.764 1081.32,584.307 1027.88,610.035 1081.32,635.764"/>
<polyline fill="none" stroke="#ff0000" stroke-width="1" points="1029.87,121.19 978.409,121.19 1011.21,186.783 1029.87,121.19"/>
<polyline fill="none" stroke="#ff0000" stroke-width="1" points="360.921,275.562 360.921,327.02 406.835,296.146 360.921,275.562"/>
<polyline fill="none" stroke="#ff0000" stroke-width="1" points="618.208,841.593 669.665,841.593 644.14,770.628 618.208,841.593"/>
<polyline fill="none" stroke="#ff0000" stroke-width="1" points="1081.32,481.392 1081.32,429.935 1027.88,455.663 1081.32,481.392"/>
<polyline fill="none" stroke="#ff0000" stroke-width="1" points="618.208,121.19 566.75,121.19 592.479,174.631 618.208,121.19"/>
<polyline fill="none" stroke="#ff0000" stroke-width="1" points="360.921,687.221 360.921,738.679 414.361,712.95 360.921,687.221"/>
<polyline fill="none" stroke="#ff0000" stroke-width="1" points="824.037,121.19 772.58,121.19 798.309,174.631 824.037,121.19"/>
<polyline fill="none" stroke="#ff0000" stroke-width="1" points="360.921,481.392 360.921,532.849 406.835,512.266 360.921,481.392"/>
<polyline fill="none" stroke="#ff0000" stroke-width="1" points="824.037,841.593 875.495,841.593 849.766,788.153 824.037,841.593"/>
<polyline fill="none" stroke="#ff0000" stroke-width="1" points="1081.32,275.562 1081.32,224.105 1027.88,249.834 1081.32,275.562"/>
<polyline fill="none" stroke="#ff0000" stroke-width="1" points="412.378,841.593 463.836,841.593 429.625,775.1 412.378,841.593"/>
<polyline fill="none" stroke="#ff0000" stroke-width="1" points="1081.32,687.221 1081.32,635.764 1035.41,656.347 1081.32,687.221"/>
<polyline fill="none" stroke="#ff0000" stroke-width="1" points="926.952,121.19 875.495,121.19 906.369,167.104 926.952,121.19"/>
<polyline fill="none" stroke="#ff0000" stroke-width="1" points="360.921,378.477 360.921,429.935 414.361,404.206 360.921,378.477"/>
<polyline fill="none" stroke="#ff0000" stroke-width="1" points="721.123,841.593 772.58,841.593 741.706,795.679 721.123,841.593"/>
<polyline fill="none" stroke="#ff0000" stroke-width="1" points="1081.32,378.477 1081.32,327.02 1027.88,352.749 1081.32,378.477"/>
<polyline fill="none" stroke="#ff0000" stroke-width="1" points="515.293,121.19 463.836,121.19 489.564,174.631 515.293,121.19"/>
<polyline fill="none" stroke="#ff0000" stroke-width="1" points="1081.32,790.136 1081.32,738.679 1011.21,776.001 1081.32,790.136"/>
<polyline fill="none" stroke="#ff0000" stroke-width="1" points="721.123,121.19 669.665,121.19 695.394,174.631 721.123,121.19"/>
<polyline fill="none" stroke="#ff0000" stroke-width="1" points="360.921,584.307 360.921,635.764 414.361,610.035 360.921,584.307"/>
<polyline fill="none" stroke="#ff0000" stroke-width="1" points="926.952,841.593 978.409,841.593 952.681,788.153 926.952,841.593"/>
<polyline fill="none" stroke="#ff0000" stroke-width="1" points="360.921,172.648 360.921,224.105 426.513,191.309 360.921,172.648"/>
<polyline fill="none" stroke="#ff0000" stroke-width="1" points="515.293,841.593 566.75,841.593 541.021,788.153 515.293,841.593"/>
<polyline fill="none" stroke="#ff0000" stroke-width="1" points="1081.32,584.307 1081.32,532.849 1005.69,561.13 1081.32,584.307"/>
<polyline fill="none" stroke="#ff0000" stroke-width="1" points="414.361,249.834 360.921,275.562 406.835,296.146 414.361,249.834 406.835,296.146 483.611,275.562 414.361,249.834"/>
<polyline fill="none" stroke="#ff0000" stroke-width="1" points="545.538,205.443 515.293,121.19 489.564,174.631 545.538,205.443 489.564,174.631 483.611,275.562 545.538,205.443"/>
<polyline fill="none" stroke="#ff0000" stroke-width="1" points="1027.88,249.834 1081.32,224.105 1011.21,186.783 1027.88,249.834 1011.21,186.783 926.952,243.881 1027.88,249.834"/>
<polyline fill="none" stroke="#ff0000" stroke-width="1" points="798.309,788.153 824.037,841.593 849.766,788.153 798.309,788.153 849.766,788.153 824.037,718.903 798.309,788.153"/>
<polyline fill="none" stroke="#ff0000" stroke-width="1" points="406.835,296.146 360.921,327.02 414.361,352.749 406.835,296.146 414.361,352.749 483.611,275.562 406.835,296.146"/>
<polyline fill="none" stroke="#ff0000" stroke-width="1" points="414.361,610.035 360.921,635.764 414.361,661.493 414.361,610.035 414.361,661.493 475.781,615.658 414.361,610.035"/>
<polyline fill="none" stroke="#ff0000" stroke-width="1" points="414.361,661.493 360.921,687.221 414.361,712.95 414.361,661.493 505.394,712.599 475.781,615.658 414.361,661.493"/>
<polyline fill="none" stroke="#ff0000" stroke-width="1" points="906.369,795.679 926.952,841.593 952.681,788.153 906.369,795.679 952.681,788.153 926.952,718.903 906.369,795.679"/>
<polyline fill="none" stroke="#ff0000" stroke-width="1" points="741.706,795.679 772.58,841.593 798.309,788.153 741.706,795.679 798.309,788.153 721.123,718.903 741.706,795.679"/>
<polyline fill="none" stroke="#ff0000" stroke-width="1" points="952.681,174.631 926.952,121.19 906.369,167.104 952.681,174.631 906.369,167.104 926.952,243.881 952.681,174.631"/>
<polyline fill="none" stroke="#ff0000" stroke-width="1" points="414.361,712.95 360.921,738.679 429.625,775.1 414.361,712.95 429.625,775.1 505.394,712.599 414.361,712.95"/>
<polyline fill="none" stroke="#ff0000" stroke-width="1" points="1027.88,507.121 1081.32,481.392 1027.88,455.663 1027.88,507.121 1027.88,455.663 958.634,481.392 1027.88,507.121"/>
<polyline fill="none" stroke="#ff0000" stroke-width="1" points="746.851,174.631 721.123,121.19 695.394,174.631 746.851,174.631 695.394,174.631 737.334,238.989 746.851,174.631"/>
<polyline fill="none" stroke="#ff0000" stroke-width="1" points="906.369,167.104 875.495,121.19 849.766,174.631 906.369,167.104 849.766,174.631 926.952,243.881 906.369,167.104"/>
<polyline fill="none" stroke="#ff0000" stroke-width="1" points="426.513,191.309 412.378,121.19 360.921,172.648 426.513,191.309"/>
<polyline fill="none" stroke="#ff0000" stroke-width="1" points="1027.88,455.663 1081.32,429.935 1005.47,398.595 1027.88,455.663 1005.47,398.595 958.634,481.392 1027.88,455.663"/>
<polyline fill="none" stroke="#ff0000" stroke-width="1" points="541.021,788.153 566.75,841.593 592.479,788.153 541.021,788.153 592.479,788.153 579.391,735.448 541.021,788.153"/>
<polyline fill="none" stroke="#ff0000" stroke-width="1" points="849.766,174.631 824.037,121.19 798.309,174.631 849.766,174.631 798.309,174.631 824.037,243.881 849.766,174.631"/>
<polyline fill="none" stroke="#ff0000" stroke-width="1" points="489.564,788.153 515.293,841.593 541.021,788.153 489.564,788.153 541.021,788.153 505.394,712.599 489.564,788.153"/>
<polyline fill="none" stroke="#ff0000" stroke-width="1" points="489.564,174.631 463.836,121.19 426.513,191.309 489.564,174.631 426.513,191.309 483.611,275.562 489.564,174.631"/>
<polyline fill="none" stroke="#ff0000" stroke-width="1" points="695.394,788.153 721.123,841.593 741.706,795.679 695.394,788.153 741.706,795.679 721.123,718.903 695.394,788.153"/>
<polyline fill="none" stroke="#ff0000" stroke-width="1" points="406.835,512.266 360.921,532.849 414.361,558.578 406.835,512.266 414.361,558.578 483.611,532.849 406.835,512.266"/>
<polyline fill="none" stroke="#ff0000" stroke-width="1" points="592.479,788.153 618.208,841.593 644.14,770.628 592.479,788.153 644.14,770.628 579.391,735.448 592.479,788.153"/>
<polyline fill="none" stroke="#ff0000" stroke-width="1" points="429.625,775.1 360.921,790.136 412.378,841.593 429.625,775.1"/>
<polyline fill="none" stroke="#ff0000" stroke-width="1" points="1035.41,656.347 1081.32,635.764 1027.88,610.035 1035.41,656.347 1027.88,610.035 958.634,635.764 1035.41,656.347"/>
<polyline fill="none" stroke="#ff0000" stroke-width="1" points="1027.88,301.291 1081.32,275.562 1027.88,249.834 1027.88,301.291 1027.88,249.834 970.961,317.342 1027.88,301.291"/>
<polyline fill="none" stroke="#ff0000" stroke-width="1" points="644.14,770.628 669.665,841.593 695.394,788.153 644.14,770.628 695.394,788.153 721.123,718.903 644.14,770.628"/>
<polyline fill="none" stroke="#ff0000" stroke-width="1" points="952.681,788.153 978.409,841.593 1011.21,776.001 952.681,788.153 1011.21,776.001 926.952,718.903 952.681,788.153"/>
<polyline fill="none" stroke="#ff0000" stroke-width="1" points="1011.21,776.001 1029.87,841.593 1081.32,790.136 1011.21,776.001"/>
<polyline fill="none" stroke="#ff0000" stroke-width="1" points="1011.21,186.783 1081.32,172.648 1029.87,121.19 1011.21,186.783"/>
<polyline fill="none" stroke="#ff0000" stroke-width="1" points="1027.88,352.749 1081.32,327.02 1027.88,301.291 1027.88,352.749 1027.88,301.291 970.961,317.342 1027.88,352.749"/>
<polyline fill="none" stroke="#ff0000" stroke-width="1" points="414.361,352.749 360.921,378.477 414.361,404.206 414.361,352.749 414.361,404.206 483.611,378.477 414.361,352.749"/>
<polyline fill="none" stroke="#ff0000" stroke-width="1" points="798.309,174.631 772.58,121.19 746.851,174.631 798.309,174.631 746.851,174.631 737.334,238.989 798.309,174.631"/>
<polyline fill="none" stroke="#ff0000" stroke-width="1" points="641.621,168.032 618.208,121.19 592.479,174.631 641.621,168.032 592.479,174.631 632.361,248.519 641.621,168.032"/>
<polyline fill="none" stroke="#ff0000" stroke-width="1" points="414.361,558.578 360.921,584.307 414.361,610.035 414.361,558.578 414.361,610.035 475.781,615.658 414.361,558.578"/>
<polyline fill="none" stroke="#ff0000" stroke-width="1" points="414.361,404.206 360.921,429.935 414.361,455.663 414.361,404.206 491.35,450.324 483.611,378.477 414.361,404.206"/>
<polyline fill="none" stroke="#ff0000" stroke-width="1" points="1027.88,712.95 1081.32,687.221 1035.41,656.347 1027.88,712.95 958.634,635.764 926.952,718.903 1027.88,712.95"/>
<polyline fill="none" stroke="#ff0000" stroke-width="1" points="592.479,174.631 566.75,121.19 545.538,205.443 592.479,174.631 545.538,205.443 632.361,248.519 592.479,174.631"/>
<polyline fill="none" stroke="#ff0000" stroke-width="1" points="1005.69,561.13 1081.32,532.849 1027.88,507.121 1005.69,561.13 1027.88,507.121 958.634,481.392 1005.69,561.13"/>
<polyline fill="none" stroke="#ff0000" stroke-width="1" points="414.361,455.663 360.921,481.392 406.835,512.266 414.361,455.663 406.835,512.266 483.611,532.849 414.361,455.663"/>
<polyline fill="none" stroke="#ff0000" stroke-width="1" points="1027.88,610.035 1081.32,584.307 1005.69,561.13 1027.88,610.035 1005.69,561.13 958.634,635.764 1027.88,610.035"/>
<polyline fill="none" stroke="#ff0000" stroke-width="1" points="695.394,174.631 669.665,121.19 641.621,168.032 695.394,174.631 641.621,168.032 632.361,248.519 695.394,174.631"/>
<polyline fill="none" stroke="#ff0000" stroke-width="1" points="1005.47,398.595 1081.32,378.477 1027.88,352.749 1005.47,398.595 1027.88,352.749 970.961,317.342 1005.47,398.595"/>
<polyline fill="none" stroke="#ff0000" stroke-width="1" points="849.766,788.153 875.495,841.593 906.369,795.679 849.766,788.153 906.369,795.679 926.952,718.903 849.766,788.153"/>
<polyline fill="none" stroke="#ff0000" stroke-width="1" points="360.921,224.105 414.361,249.834 426.513,191.309 360.921,224.105"/>
<polyline fill="none" stroke="#ff0000" stroke-width="1" points="978.409,121.19 952.681,174.631 1011.21,186.783 978.409,121.19"/>
<polyline fill="none" stroke="#ff0000" stroke-width="1" points="463.836,841.593 489.564,788.153 429.625,775.1 463.836,841.593"/>
<polyline fill="none" stroke="#ff0000" stroke-width="1" points="1081.32,738.679 1027.88,712.95 1011.21,776.001 1081.32,738.679"/>
<polyline fill="none" stroke="#ff0000" stroke-width="1" points="414.361,249.834 483.611,275.562 426.513,191.309 414.361,249.834"/>
<polyline fill="none" stroke="#ff0000" stroke-width="1" points="849.766,174.631 824.037,243.881 926.952,243.881 849.766,174.631"/>
<polyline fill="none" stroke="#ff0000" stroke-width="1" points="1035.41,656.347 958.634,635.764 1027.88,712.95 1035.41,656.347"/>
<polyline fill="none" stroke="#ff0000" stroke-width="1" points="721.123,718.903 798.309,788.153 824.037,718.903 721.123,718.903"/>
<polyline fill="none" stroke="#ff0000" stroke-width="1" points="952.681,174.631 926.952,243.881 1011.21,186.783 952.681,174.631"/>
<polyline fill="none" stroke="#ff0000" stroke-width="1" points="483.611,532.849 414.361,558.578 475.781,615.658 483.611,532.849"/>
<polyline fill="none" stroke="#ff0000" stroke-width="1" points="824.037,718.903 849.766,788.153 926.952,718.903 824.037,718.903"/>
<polyline fill="none" stroke="#ff0000" stroke-width="1" points="737.334,238.989 695.394,174.631 632.361,248.519 737.334,238.989"/>
<polyline fill="none" stroke="#ff0000" stroke-width="1" points="970.961,317.342 1027.88,249.834 926.952,243.881 970.961,317.342"/>
<polyline fill="none" stroke="#ff0000" stroke-width="1" points="926.952,718.903 1011.21,776.001 1027.88,712.95 926.952,718.903"/>
<polyline fill="none" stroke="#ff0000" stroke-width="1" points="414.361,352.749 483.611,378.477 483.611,275.562 414.361,352.749"/>
<polyline fill="none" stroke="#ff0000" stroke-width="1" points="824.037,243.881 798.309,174.631 737.334,238.989 824.037,243.881"/>
<polyline fill="none" stroke="#ff0000" stroke-width="1" points="926.952,718.903 958.634,635.764 878.082,652.674 926.952,718.903"/>
<polyline fill="none" stroke="#ff0000" stroke-width="1" points="970.961,317.342 926.952,243.881 878.082,310.109 970.961,317.342"/>
<polyline fill="none" stroke="#ff0000" stroke-width="1" points="878.082,652.674 958.634,635.764 904.13,576.446 878.082,652.674"/>
<polyline fill="none" stroke="#ff0000" stroke-width="1" points="904.13,576.446 958.634,635.764 1005.69,561.13 904.13,576.446"/>
<polyline fill="none" stroke="#ff0000" stroke-width="1" points="878.082,652.674 904.13,576.446 825.577,592.168 878.082,652.674"/>
<polyline fill="none" stroke="#ff0000" stroke-width="1" points="825.577,592.168 904.13,576.446 851.264,516.404 825.577,592.168"/>
<polyline fill="none" stroke="#ff0000" stroke-width="1" points="878.082,652.674 825.577,592.168 824.037,718.903 878.082,652.674"/>
<polyline fill="none" stroke="#ff0000" stroke-width="1" points="851.264,516.404 904.13,576.446 958.634,481.392 851.264,516.404"/>
<polyline fill="none" stroke="#ff0000" stroke-width="1" points="825.577,592.168 851.264,516.404 772.837,532.051 825.577,592.168"/>
<polyline fill="none" stroke="#ff0000" stroke-width="1" points="772.837,532.051 851.264,516.404 798.501,456.316 772.837,532.051"/>
<polyline fill="none" stroke="#ff0000" stroke-width="1" points="825.577,592.168 772.837,532.051 747.15,607.778 825.577,592.168"/>
<polyline fill="none" stroke="#ff0000" stroke-width="1" points="798.501,456.316 851.264,516.404 876.918,440.668 798.501,456.316"/>
<polyline fill="none" stroke="#ff0000" stroke-width="1" points="772.837,532.051 798.501,456.316 720.083,471.958 772.837,532.051"/>
<polyline fill="none" stroke="#ff0000" stroke-width="1" points="825.577,592.168 747.15,607.778 824.037,718.903 825.577,592.168"/>
<polyline fill="none" stroke="#ff0000" stroke-width="1" points="798.501,456.316 876.918,440.668 824.158,380.581 798.501,456.316"/>
<polyline fill="none" stroke="#ff0000" stroke-width="1" points="720.083,471.958 798.501,456.316 745.746,396.225 720.083,471.958"/>
<polyline fill="none" stroke="#ff0000" stroke-width="1" points="824.158,380.581 876.918,440.668 902.575,364.933 824.158,380.581"/>
<polyline fill="none" stroke="#ff0000" stroke-width="1" points="798.501,456.316 824.158,380.581 745.746,396.225 798.501,456.316"/>
<polyline fill="none" stroke="#ff0000" stroke-width="1" points="745.746,396.225 824.158,380.581 771.403,320.491 745.746,396.225"/>
<polyline fill="none" stroke="#ff0000" stroke-width="1" points="720.083,471.958 745.746,396.225 667.328,411.867 720.083,471.958"/>
<polyline fill="none" stroke="#ff0000" stroke-width="1" points="902.575,364.933 876.918,440.668 958.634,481.392 902.575,364.933"/>
<polyline fill="none" stroke="#ff0000" stroke-width="1" points="745.746,396.225 771.403,320.491 692.986,336.138 745.746,396.225"/>
<polyline fill="none" stroke="#ff0000" stroke-width="1" points="720.083,471.958 667.328,411.867 641.665,487.6 720.083,471.958"/>
<polyline fill="none" stroke="#ff0000" stroke-width="1" points="692.986,336.138 771.403,320.491 737.334,238.989 692.986,336.138"/>
<polyline fill="none" stroke="#ff0000" stroke-width="1" points="745.746,396.225 692.986,336.138 667.328,411.867 745.746,396.225"/>
<polyline fill="none" stroke="#ff0000" stroke-width="1" points="667.328,411.867 692.986,336.138 614.569,351.78 667.328,411.867"/>
<polyline fill="none" stroke="#ff0000" stroke-width="1" points="641.665,487.6 667.328,411.867 588.91,427.509 641.665,487.6"/>
<polyline fill="none" stroke="#ff0000" stroke-width="1" points="614.569,351.78 692.986,336.138 632.361,248.519 614.569,351.78"/>
<polyline fill="none" stroke="#ff0000" stroke-width="1" points="588.91,427.509 667.328,411.867 614.569,351.78 588.91,427.509 614.569,351.78 483.611,378.477 588.91,427.509"/>
<polyline fill="none" stroke="#ff0000" stroke-width="1" points="641.665,487.6 588.91,427.509 563.247,503.242 641.665,487.6"/>
<polyline fill="none" stroke="#ff0000" stroke-width="1" points="563.247,503.242 588.91,427.509 491.35,450.324 563.247,503.242"/>
<polyline fill="none" stroke="#ff0000" stroke-width="1" points="641.665,487.6 563.247,503.242 616.002,563.333 641.665,487.6"/>
<polyline fill="none" stroke="#ff0000" stroke-width="1" points="491.35,450.324 588.91,427.509 483.611,378.477 491.35,450.324 414.361,404.206 414.361,455.663 491.35,450.324"/>
<polyline fill="none" stroke="#ff0000" stroke-width="1" points="616.002,563.333 563.247,503.242 537.584,578.974 616.002,563.333"/>
<polyline fill="none" stroke="#ff0000" stroke-width="1" points="641.665,487.6 616.002,563.333 694.42,547.691 641.665,487.6"/>
<polyline fill="none" stroke="#ff0000" stroke-width="1" points="537.584,578.974 563.247,503.242 483.611,532.849 537.584,578.974 483.611,532.849 475.781,615.658 537.584,578.974 475.781,615.658 560.793,655.075 537.584,578.974"/>
<polyline fill="none" stroke="#ff0000" stroke-width="1" points="560.793,655.075 475.781,615.658 505.394,712.599 560.793,655.075"/>
<polyline fill="none" stroke="#ff0000" stroke-width="1" points="537.584,578.974 560.793,655.075 616.002,563.333 537.584,578.974"/>
<polyline fill="none" stroke="#ff0000" stroke-width="1" points="505.394,712.599 414.361,661.493 414.361,712.95 505.394,712.599"/>
<polyline fill="none" stroke="#ff0000" stroke-width="1" points="560.793,655.075 505.394,712.599 579.391,735.448 560.793,655.075"/>
<polyline fill="none" stroke="#ff0000" stroke-width="1" points="579.391,735.448 505.394,712.599 541.021,788.153 579.391,735.448"/>
<polyline fill="none" stroke="#ff0000" stroke-width="1" points="560.793,655.075 579.391,735.448 632.722,680.554 560.793,655.075"/>
<polyline fill="none" stroke="#ff0000" stroke-width="1" points="489.564,788.153 505.394,712.599 429.625,775.1 489.564,788.153"/>
<polyline fill="none" stroke="#ff0000" stroke-width="1" points="632.722,680.554 579.391,735.448 644.14,770.628 632.722,680.554"/>
<polyline fill="none" stroke="#ff0000" stroke-width="1" points="560.793,655.075 632.722,680.554 616.002,563.333 560.793,655.075"/>
<polyline fill="none" stroke="#ff0000" stroke-width="1" points="694.42,547.691 616.002,563.333 668.757,623.424 694.42,547.691"/>
<polyline fill="none" stroke="#ff0000" stroke-width="1" points="668.757,623.424 616.002,563.333 632.722,680.554 668.757,623.424 632.722,680.554 721.123,718.903 668.757,623.424"/>
<polyline fill="none" stroke="#ff0000" stroke-width="1" points="694.42,547.691 668.757,623.424 747.15,607.778 694.42,547.691"/>
<polyline fill="none" stroke="#ff0000" stroke-width="1" points="747.15,607.778 668.757,623.424 721.123,718.903 747.15,607.778"/>
<polyline fill="none" stroke="#ff0000" stroke-width="1" points="694.42,547.691 747.15,607.778 772.837,532.051 694.42,547.691 772.837,532.051 720.083,471.958 694.42,547.691 720.083,471.958 641.665,487.6 694.42,547.691"/>
<polyline fill="none" stroke="#ff0000" stroke-width="1" points="771.403,320.491 824.158,380.581 878.082,310.109 771.403,320.491"/>
<polyline fill="none" stroke="#ff0000" stroke-width="1" points="563.247,503.242 491.35,450.324 483.611,532.849 563.247,503.242"/>
<polyline fill="none" stroke="#ff0000" stroke-width="1" points="876.918,440.668 851.264,516.404 958.634,481.392 876.918,440.668"/>
<polyline fill="none" stroke="#ff0000" stroke-width="1" points="824.158,380.581 902.575,364.933 878.082,310.109 824.158,380.581"/>
<polyline fill="none" stroke="#ff0000" stroke-width="1" points="878.082,310.109 902.575,364.933 970.961,317.342 878.082,310.109"/>
<polyline fill="none" stroke="#ff0000" stroke-width="1" points="970.961,317.342 902.575,364.933 1005.47,398.595 970.961,317.342"/>
<polyline fill="none" stroke="#ff0000" stroke-width="1" points="926.952,718.903 878.082,652.674 824.037,718.903 926.952,718.903"/>
<polyline fill="none" stroke="#ff0000" stroke-width="1" points="878.082,310.109 926.952,243.881 824.037,243.881 878.082,310.109 824.037,243.881 771.403,320.491 878.082,310.109"/>
<polyline fill="none" stroke="#ff0000" stroke-width="1" points="737.334,238.989 771.403,320.491 824.037,243.881 737.334,238.989"/>
<polyline fill="none" stroke="#ff0000" stroke-width="1" points="483.611,532.849 491.35,450.324 414.361,455.663 483.611,532.849"/>
<polyline fill="none" stroke="#ff0000" stroke-width="1" points="692.986,336.138 737.334,238.989 632.361,248.519 692.986,336.138"/>
<polyline fill="none" stroke="#ff0000" stroke-width="1" points="721.123,718.903 632.722,680.554 644.14,770.628 721.123,718.903 824.037,718.903 747.15,607.778 721.123,718.903"/>
<polyline fill="none" stroke="#ff0000" stroke-width="1" points="483.611,275.562 483.611,378.477 552.861,327.02 483.611,275.562"/>
<polyline fill="none" stroke="#ff0000" stroke-width="1" points="552.861,327.02 483.611,378.477 614.569,351.78 552.861,327.02 614.569,351.78 632.361,248.519 552.861,327.02"/>
<polyline fill="none" stroke="#ff0000" stroke-width="1" points="483.611,275.562 552.861,327.02 545.538,205.443 483.611,275.562"/>
<polyline fill="none" stroke="#ff0000" stroke-width="1" points="552.861,327.02 632.361,248.519 545.538,205.443 552.861,327.02"/>
<polyline fill="none" stroke="#ff0000" stroke-width="1" points="958.634,481.392 1005.47,398.595 902.575,364.933 958.634,481.392"/>
<polyline fill="none" stroke="#ff0000" stroke-width="1" points="1005.69,561.13 958.634,481.392 904.13,576.446 1005.69,561.13"/>
<polygon fill="#df3737" points="93.5034,823.987 85.3491,820.725 85.3491,821.68"/>
<polygon fill="#c53131" points="85.3491,820.725 77.1948,817.463 77.1948,818.418"/>
<polygon fill="#ed3b3b" points="85.3491,821.68 77.1948,819.374 77.1948,818.418"/>
<polygon fill="#d23434" points="85.3491,820.725 81.272,819.572 85.3491,821.203"/>
<polygon fill="#d93636" points="81.272,819.572 77.1948,818.418 81.272,820.049"/>
<polygon fill="#e63939" points="85.3491,821.203 85.3491,821.68 81.272,820.049"/>
<polygon fill="#db3636" points="81.272,819.572 81.272,820.049 85.3491,821.203"/>
<polygon fill="#581616" points="93.5034,823.987 85.3491,826.293 85.3491,827.249"/>
<polygon fill="#6e1b1b" points="85.3491,826.293 77.1948,828.6 77.1948,829.555"/>
<polygon fill="#581616" points="85.3491,827.249 77.1948,830.51 77.1948,829.555"/>
<polygon fill="#601818" points="85.3491,826.293 77.1948,829.555 85.3491,827.249"/>
<polygon fill="#37df37" points="50.0132,780.497 52.3198,788.651 53.2751,788.651"/>
<polygon fill="#3bed3b" points="52.3198,788.651 54.6265,796.805 55.5818,796.805"/>
<polygon fill="#31c531" points="53.2751,788.651 56.5371,796.805 55.5818,796.805"/>
<polygon fill="#39e639" points="52.3198,788.651 53.9508,792.728 52.7975,788.651"/>
<polygon fill="#36d936" points="53.9508,792.728 55.5818,796.805 54.4285,792.728"/>
<polygon fill="#34d234" points="52.7975,788.651 53.2751,788.651 54.4285,792.728"/>
<polygon fill="#36db36" points="53.9508,792.728 54.4285,792.728 52.7975,788.651"/>
<polygon fill="#165816" points="50.0132,780.497 46.7515,788.651 47.7068,788.651"/>
<polygon fill="#165816" points="46.7515,788.651 43.4897,796.805 44.4451,796.805"/>
<polygon fill="#1b6e1b" points="47.7068,788.651 45.4004,796.805 44.4451,796.805"/>
<polygon fill="#186018" points="46.7515,788.651 44.4451,796.805 47.7068,788.651"/>
<polygon fill="#f93e3e" points="50.0132,822.321 77.1948,823.987 77.1948,822.321"/>
<polygon fill="#da3636" points="50.0132,823.987 50.0132,824.403 56.8086,824.403"/>
<polygon fill="#be2f2f" points="50.0132,824.403 50.0132,824.82 56.8086,824.82"/>
<polygon fill="#be2f2f" points="56.8086,824.403 63.604,824.82 56.8086,824.82"/>
<polygon fill="#c73131" points="50.0132,824.403 56.8086,824.82 56.8086,824.403"/>
<polygon fill="#a22828" points="50.0132,824.82 50.0132,825.236 56.8086,825.236"/>
<polygon fill="#862121" points="50.0132,825.236 50.0132,825.652 56.8086,825.652"/>
<polygon fill="#862121" points="56.8086,825.236 63.604,825.652 56.8086,825.652"/>
<polygon fill="#902424" points="50.0132,825.236 56.8086,825.652 56.8086,825.236"/>
<polygon fill="#a22828" points="63.604,824.82 70.3994,825.236 63.604,825.236"/>
<polygon fill="#862121" points="70.3994,825.236 77.1948,825.652 70.3994,825.652"/>
<polygon fill="#862121" points="63.604,825.236 63.604,825.652 70.3994,825.652"/>
<polygon fill="#902424" points="70.3994,825.236 70.3994,825.652 63.604,825.236"/>
<polygon fill="#ac2b2b" points="50.0132,824.82 56.8086,825.236 56.8086,824.82"/>
<polygon fill="#902424" points="56.8086,825.236 63.604,825.652 63.604,825.236"/>
<polygon fill="#ac2b2b" points="56.8086,824.82 63.604,824.82 63.604,825.236"/>
<polygon fill="#a22828" points="56.8086,825.236 63.604,825.236 56.8086,824.82"/>
<polygon fill="#3ef93e" points="50.0132,823.987 51.6792,823.987 51.6792,796.805"/>
<polygon fill="#218621" points="48.3477,823.987 48.764,817.191 48.3477,817.191"/>
<polygon fill="#28a228" points="48.764,817.191 49.1804,810.396 48.764,810.396"/>
<polygon fill="#218621" points="48.3477,817.191 48.3477,810.396 48.764,810.396"/>
<polygon fill="#249024" points="48.764,817.191 48.764,810.396 48.3477,817.191"/>
<polygon fill="#2fbe2f" points="49.1804,810.396 49.5968,803.601 49.1804,803.601"/>
<polygon fill="#36da36" points="49.5968,803.601 50.0132,796.805 49.5968,796.805"/>
<polygon fill="#2fbe2f" points="49.1804,803.601 49.1804,796.805 49.5968,796.805"/>
<polygon fill="#31c731" points="49.5968,803.601 49.5968,796.805 49.1804,803.601"/>
<polygon fill="#218621" points="48.3477,810.396 48.3477,803.601 48.764,803.601"/>
<polygon fill="#218621" points="48.3477,803.601 48.3477,796.805 48.764,796.805"/>
<polygon fill="#28a228" points="48.764,803.601 49.1804,796.805 48.764,796.805"/>
<polygon fill="#249024" points="48.3477,803.601 48.764,796.805 48.764,803.601"/>
<polygon fill="#2bac2b" points="49.1804,810.396 49.1804,803.601 48.764,810.396"/>
<polygon fill="#2bac2b" points="49.1804,803.601 49.1804,796.805 48.764,803.601"/>
<polygon fill="#249024" points="48.764,810.396 48.3477,810.396 48.764,803.601"/>
<polygon fill="#28a228" points="49.1804,803.601 48.764,803.601 48.764,810.396"/>
<polygon fill="#f33c3c" points="50.0132,822.321 50.0132,823.987 77.1948,823.987"/>
<polygon fill="#e33838" points="50.0132,823.987 56.8086,824.403 56.8086,823.987"/>
<polygon fill="#c73131" points="56.8086,824.403 63.604,824.82 63.604,824.403"/>
<polygon fill="#e33838" points="56.8086,823.987 63.604,823.987 63.604,824.403"/>
<polygon fill="#da3636" points="56.8086,824.403 63.604,824.403 56.8086,823.987"/>
<polygon fill="#ac2b2b" points="63.604,824.82 70.3994,825.236 70.3994,824.82"/>
<polygon fill="#902424" points="70.3994,825.236 77.1948,825.652 77.1948,825.236"/>
<polygon fill="#ac2b2b" points="70.3994,824.82 77.1948,824.82 77.1948,825.236"/>
<polygon fill="#a22828" points="70.3994,825.236 77.1948,825.236 70.3994,824.82"/>
<polygon fill="#e33838" points="63.604,823.987 70.3994,823.987 70.3994,824.403"/>
<polygon fill="#e33838" points="70.3994,823.987 77.1948,823.987 77.1948,824.403"/>
<polygon fill="#c73131" points="70.3994,824.403 77.1948,824.82 77.1948,824.403"/>
<polygon fill="#da3636" points="70.3994,823.987 77.1948,824.403 70.3994,824.403"/>
<polygon fill="#be2f2f" points="63.604,824.82 70.3994,824.82 63.604,824.403"/>
<polygon fill="#be2f2f" points="70.3994,824.82 77.1948,824.82 70.3994,824.403"/>
<polygon fill="#da3636" points="63.604,824.403 63.604,823.987 70.3994,824.403"/>
<polygon fill="#c73131" points="70.3994,824.82 70.3994,824.403 63.604,824.403"/>
<polygon fill="#3cf33c" points="50.0132,823.987 51.6792,796.805 50.0132,796.805"/>
<polygon fill="#249024" points="48.3477,823.987 48.764,823.987 48.764,817.191"/>
<polygon fill="#2bac2b" points="48.764,823.987 49.1804,823.987 49.1804,817.191"/>
<polygon fill="#2bac2b" points="48.764,817.191 49.1804,810.396 49.1804,817.191"/>
<polygon fill="#28a228" points="48.764,823.987 49.1804,817.191 48.764,817.191"/>
<polygon fill="#31c731" points="49.1804,823.987 49.5968,823.987 49.5968,817.191"/>
<polygon fill="#38e338" points="49.5968,823.987 50.0132,823.987 50.0132,817.191"/>
<polygon fill="#38e338" points="49.5968,817.191 50.0132,810.396 50.0132,817.191"/>
<polygon fill="#36da36" points="49.5968,823.987 50.0132,817.191 49.5968,817.191"/>
<polygon fill="#31c731" points="49.1804,810.396 49.5968,803.601 49.5968,810.396"/>
<polygon fill="#38e338" points="49.5968,803.601 50.0132,796.805 50.0132,803.601"/>
<polygon fill="#38e338" points="49.5968,810.396 50.0132,810.396 50.0132,803.601"/>
<polygon fill="#36da36" points="49.5968,803.601 50.0132,803.601 49.5968,810.396"/>
<polygon fill="#2fbe2f" points="49.1804,823.987 49.5968,817.191 49.1804,817.191"/>
<polygon fill="#36da36" points="49.5968,817.191 50.0132,810.396 49.5968,810.396"/>
<polygon fill="#2fbe2f" points="49.1804,817.191 49.1804,810.396 49.5968,810.396"/>
<polygon fill="#31c731" points="49.5968,817.191 49.5968,810.396 49.1804,817.191"/>
<polygon fill="#f93f3f" points="93.5034,823.987 77.1948,819.374 77.1948,823.987"/>
<polygon fill="#bc2f2f" points="93.5034,823.987 89.4263,823.987 89.4263,825.14"/>
<polygon fill="#c83232" points="89.4263,823.987 85.3491,823.987 85.3491,825.14"/>
<polygon fill="#ac2b2b" points="89.4263,825.14 85.3491,826.293 85.3491,825.14"/>
<polygon fill="#ba2e2e" points="89.4263,823.987 85.3491,825.14 89.4263,825.14"/>
<polygon fill="#d43535" points="85.3491,823.987 81.272,823.987 81.272,825.14"/>
<polygon fill="#df3737" points="81.272,823.987 77.1948,823.987 77.1948,825.14"/>
<polygon fill="#c43131" points="81.272,825.14 77.1948,826.293 77.1948,825.14"/>
<polygon fill="#d23434" points="81.272,823.987 77.1948,825.14 81.272,825.14"/>
<polygon fill="#9c2727" points="85.3491,826.293 81.272,827.446 81.272,826.293"/>
<polygon fill="#8c2323" points="81.272,827.446 77.1948,828.6 77.1948,827.446"/>
<polygon fill="#a82a2a" points="81.272,826.293 77.1948,826.293 77.1948,827.446"/>
<polygon fill="#9a2626" points="81.272,827.446 77.1948,827.446 81.272,826.293"/>
<polygon fill="#c63131" points="85.3491,823.987 81.272,825.14 85.3491,825.14"/>
<polygon fill="#b62d2d" points="81.272,825.14 77.1948,826.293 81.272,826.293"/>
<polygon fill="#aa2a2a" points="85.3491,825.14 85.3491,826.293 81.272,826.293"/>
<polygon fill="#b82e2e" points="81.272,825.14 81.272,826.293 85.3491,825.14"/>
<polygon fill="#3ff93f" points="50.0132,780.497 50.0132,796.805 54.6265,796.805"/>
<polygon fill="#2fbc2f" points="50.0132,780.497 48.86,784.574 50.0132,784.574"/>
<polygon fill="#2bac2b" points="48.86,784.574 47.7068,788.651 48.86,788.651"/>
<polygon fill="#32c832" points="50.0132,784.574 50.0132,788.651 48.86,788.651"/>
<polygon fill="#2eba2e" points="48.86,784.574 48.86,788.651 50.0132,784.574"/>
<polygon fill="#279c27" points="47.7068,788.651 46.5536,792.728 47.7068,792.728"/>
<polygon fill="#238c23" points="46.5536,792.728 45.4004,796.805 46.5536,796.805"/>
<polygon fill="#2aa82a" points="47.7068,792.728 47.7068,796.805 46.5536,796.805"/>
<polygon fill="#269a26" points="46.5536,792.728 46.5536,796.805 47.7068,792.728"/>
<polygon fill="#35d435" points="50.0132,788.651 50.0132,792.728 48.86,792.728"/>
<polygon fill="#37df37" points="50.0132,792.728 50.0132,796.805 48.86,796.805"/>
<polygon fill="#31c431" points="48.86,792.728 47.7068,796.805 48.86,796.805"/>
<polygon fill="#34d234" points="50.0132,792.728 48.86,796.805 48.86,792.728"/>
<polygon fill="#2aaa2a" points="47.7068,788.651 47.7068,792.728 48.86,788.651"/>
<polygon fill="#2db62d" points="47.7068,792.728 47.7068,796.805 48.86,792.728"/>
<polygon fill="#31c631" points="48.86,788.651 50.0132,788.651 48.86,792.728"/>
<polygon fill="#2eb82e" points="47.7068,792.728 48.86,792.728 48.86,788.651"/>
<polygon fill="#3194c5" points="50.0132,823.987 56.5371,823.987 54.6265,819.374"/>
<polygon fill="#3194c5" points="50.0132,823.987 54.6265,819.374 50.0132,817.463"/>
<polygon fill="#206282" points="50.0132,823.987 50.0132,820.725 47.7068,821.68"/>
<polygon fill="#267298" points="50.0132,820.725 50.0132,817.463 47.7068,818.418"/>
<polygon fill="#1a4f69" points="47.7068,821.68 45.4004,819.374 47.7068,818.418"/>
<polygon fill="#236a8d" points="50.0132,820.725 48.86,819.572 48.86,821.203"/>
<polygon fill="#206080" points="48.86,819.572 47.7068,818.418 47.7068,820.049"/>
<polygon fill="#1d5876" points="48.86,821.203 47.7068,821.68 47.7068,820.049"/>
<polygon fill="#206181" points="48.86,819.572 47.7068,820.049 48.86,821.203"/>
<polygon fill="#143d51" points="50.0132,823.987 45.4004,819.374 43.4897,823.987"/>
<polygon fill="#143d51" points="50.0132,823.987 43.4897,823.987 45.4004,828.6"/>
<polygon fill="#143d51" points="50.0132,823.987 45.4004,828.6 50.0132,830.51"/>
<polygon fill="#143d51" points="50.0132,823.987 50.0132,830.51 54.6265,828.6"/>
<polygon fill="#206282" points="50.0132,823.987 52.3198,826.293 53.2751,823.987"/>
<polygon fill="#1a4f69" points="52.3198,826.293 54.6265,828.6 55.5818,826.293"/>
<polygon fill="#267298" points="53.2751,823.987 56.5371,823.987 55.5818,826.293"/>
<polygon fill="#1d5876" points="52.3198,826.293 53.9508,826.293 52.7975,825.14"/>
<polygon fill="#206080" points="53.9508,826.293 55.5818,826.293 54.4285,825.14"/>
<polygon fill="#236a8d" points="52.7975,825.14 53.2751,823.987 54.4285,825.14"/>
<polygon fill="#206181" points="53.9508,826.293 54.4285,825.14 52.7975,825.14"/>
<text fill="#000000" x="50.0132" y="823.987" font-size="14" text-anchor="start" baseline-shift="0" font-family="Courier">z</text>
<polygon fill="#000000" points="1428,874 1468,874 1468,850"/>
<polygon fill="#000000" points="1428,874 1468,850 1428,850"/>
<text fill="#ffff00" x="1435.34" y="864.825" font-size="0" text-anchor="start" baseline-shift="0" font-family="Courier">GiD</text>
</g>
</svg>
