<?xml version="1.0" encoding="UTF-8" standalone="no"?>
<svg xmlns="http://www.w3.org/2000/svg"
     xmlns:xlink="http://www.w3.org/1999/xlink"
     width="748px" height="887px" viewBox="0 0 748 887">
<title>UNNAMED</title>
<desc>
Creator: GiD + GL2PS 1.3.8, (C) 1999-2012 C. Geuzaine
For: GiD-gl2ps
CreationDate: Fri Feb 21 18:24:13 2020
</desc>
<defs>
</defs>
<polygon fill="#ffffff" points="0,0 748,0 748,887 0,887"/>
<g shape-rendering="crispEdges">
<text fill="#000000" x="98.9396" y="836.987" font-size="14" text-anchor="start" baseline-shift="0" font-family="Courier">x</text>
<text fill="#000000" x="50.0134" y="788.06" font-size="14" text-anchor="start" baseline-shift="0" font-family="Courier">y</text>
<polygon fill="#b52d2d" points="50.0134,834.631 50.0134,834.803 56.8087,834.631"/>
<polygon fill="#c93232" points="50.0134,834.803 50.0134,834.976 56.8087,834.803"/>
<polygon fill="#b52d2d" points="56.8087,834.631 63.604,834.631 56.8087,834.803"/>
<polygon fill="#bc2f2f" points="50.0134,834.803 56.8087,834.803 56.8087,834.631"/>
<polygon fill="#dd3737" points="50.0134,834.976 50.0134,835.148 56.8087,834.976"/>
<polygon fill="#f13c3c" points="50.0134,835.148 50.0134,835.321 56.8087,835.148"/>
<polygon fill="#dd3737" points="56.8087,834.976 63.604,834.976 56.8087,835.148"/>
<polygon fill="#e43939" points="50.0134,835.148 56.8087,835.148 56.8087,834.976"/>
<polygon fill="#b52d2d" points="63.604,834.631 70.3993,834.631 63.604,834.803"/>
<polygon fill="#b52d2d" points="70.3993,834.631 77.1946,834.631 70.3993,834.803"/>
<polygon fill="#c93232" points="63.604,834.803 63.604,834.976 70.3993,834.803"/>
<polygon fill="#bc2f2f" points="70.3993,834.631 70.3993,834.803 63.604,834.803"/>
<polygon fill="#d03434" points="50.0134,834.976 56.8087,834.976 56.8087,834.803"/>
<polygon fill="#d03434" points="56.8087,834.976 63.604,834.976 63.604,834.803"/>
<polygon fill="#bc2f2f" points="56.8087,834.803 63.604,834.631 63.604,834.803"/>
<polygon fill="#c93232" points="56.8087,834.976 63.604,834.803 56.8087,834.803"/>
<polygon fill="#581616" points="50.0134,839.342 63.604,839.342 63.604,838.997"/>
<polygon fill="#581616" points="63.604,839.342 77.1946,839.342 77.1946,838.997"/>
<polygon fill="#6e1b1b" points="63.604,838.997 77.1946,838.652 77.1946,838.997"/>
<polygon fill="#601818" points="63.604,839.342 77.1946,838.997 63.604,838.997"/>
<polygon fill="#2db52d" points="52.3691,836.987 52.3691,830.191 52.1966,830.191"/>
<polygon fill="#2db52d" points="52.3691,830.191 52.3691,823.396 52.1966,823.396"/>
<polygon fill="#32c932" points="52.1966,830.191 52.0241,823.396 52.1966,823.396"/>
<polygon fill="#2fbc2f" points="52.3691,830.191 52.1966,823.396 52.1966,830.191"/>
<polygon fill="#2db52d" points="52.3691,823.396 52.3691,816.601 52.1966,816.601"/>
<polygon fill="#2db52d" points="52.3691,816.601 52.3691,809.805 52.1966,809.805"/>
<polygon fill="#32c932" points="52.1966,816.601 52.0241,809.805 52.1966,809.805"/>
<polygon fill="#2fbc2f" points="52.3691,816.601 52.1966,809.805 52.1966,816.601"/>
<polygon fill="#37dd37" points="52.0241,823.396 51.8516,816.601 52.0241,816.601"/>
<polygon fill="#3cf13c" points="51.8516,816.601 51.6792,809.805 51.8516,809.805"/>
<polygon fill="#37dd37" points="52.0241,816.601 52.0241,809.805 51.8516,809.805"/>
<polygon fill="#39e439" points="51.8516,816.601 51.8516,809.805 52.0241,816.601"/>
<polygon fill="#2fbc2f" points="52.3691,823.396 52.1966,816.601 52.1966,823.396"/>
<polygon fill="#34d034" points="52.1966,816.601 52.0241,809.805 52.0241,816.601"/>
<polygon fill="#34d034" points="52.1966,823.396 52.0241,823.396 52.0241,816.601"/>
<polygon fill="#32c932" points="52.1966,816.601 52.0241,816.601 52.1966,823.396"/>
<polygon fill="#165816" points="47.6577,836.987 48.0027,836.987 47.6577,823.396"/>
<polygon fill="#1b6e1b" points="48.0027,836.987 48.3477,836.987 48.0027,823.396"/>
<polygon fill="#165816" points="47.6577,823.396 47.6577,809.805 48.0027,823.396"/>
<polygon fill="#186018" points="48.0027,836.987 48.0027,823.396 47.6577,823.396"/>
<polygon fill="#f83e3e" points="50.0134,835.321 56.8087,835.321 56.8087,835.148"/>
<polygon fill="#f83e3e" points="56.8087,835.321 63.604,835.321 63.604,835.148"/>
<polygon fill="#e43939" points="56.8087,835.148 63.604,834.976 63.604,835.148"/>
<polygon fill="#f13c3c" points="56.8087,835.321 63.604,835.148 56.8087,835.148"/>
<polygon fill="#f83e3e" points="63.604,835.321 70.3993,835.321 70.3993,835.148"/>
<polygon fill="#f83e3e" points="70.3993,835.321 77.1946,835.321 77.1946,835.148"/>
<polygon fill="#e43939" points="70.3993,835.148 77.1946,834.976 77.1946,835.148"/>
<polygon fill="#f13c3c" points="70.3993,835.321 77.1946,835.148 70.3993,835.148"/>
<polygon fill="#d03434" points="63.604,834.976 70.3993,834.803 70.3993,834.976"/>
<polygon fill="#bc2f2f" points="70.3993,834.803 77.1946,834.631 77.1946,834.803"/>
<polygon fill="#d03434" points="70.3993,834.976 77.1946,834.976 77.1946,834.803"/>
<polygon fill="#c93232" points="70.3993,834.803 77.1946,834.803 70.3993,834.976"/>
<polygon fill="#f13c3c" points="63.604,835.321 70.3993,835.148 63.604,835.148"/>
<polygon fill="#dd3737" points="70.3993,835.148 77.1946,834.976 70.3993,834.976"/>
<polygon fill="#dd3737" points="63.604,835.148 63.604,834.976 70.3993,834.976"/>
<polygon fill="#e43939" points="70.3993,835.148 70.3993,834.976 63.604,835.148"/>
<polygon fill="#761d1d" points="50.0134,838.652 50.0134,838.997 63.604,838.652"/>
<polygon fill="#601818" points="50.0134,838.997 50.0134,839.342 63.604,838.997"/>
<polygon fill="#761d1d" points="63.604,838.652 77.1946,838.652 63.604,838.997"/>
<polygon fill="#6e1b1b" points="50.0134,838.997 63.604,838.997 63.604,838.652"/>
<polygon fill="#3ef83e" points="51.6792,836.987 51.8516,836.987 51.6792,830.191"/>
<polygon fill="#39e439" points="51.8516,836.987 52.0241,836.987 51.8516,830.191"/>
<polygon fill="#3ef83e" points="51.6792,830.191 51.6792,823.396 51.8516,830.191"/>
<polygon fill="#3cf13c" points="51.8516,836.987 51.8516,830.191 51.6792,830.191"/>
<polygon fill="#34d034" points="52.0241,836.987 52.1966,836.987 52.0241,830.191"/>
<polygon fill="#2fbc2f" points="52.1966,836.987 52.3691,836.987 52.1966,830.191"/>
<polygon fill="#34d034" points="52.0241,830.191 52.0241,823.396 52.1966,830.191"/>
<polygon fill="#32c932" points="52.1966,836.987 52.1966,830.191 52.0241,830.191"/>
<polygon fill="#3ef83e" points="51.6792,823.396 51.6792,816.601 51.8516,823.396"/>
<polygon fill="#3ef83e" points="51.6792,816.601 51.6792,809.805 51.8516,816.601"/>
<polygon fill="#39e439" points="51.8516,823.396 52.0241,823.396 51.8516,816.601"/>
<polygon fill="#3cf13c" points="51.6792,816.601 51.8516,816.601 51.8516,823.396"/>
<polygon fill="#37dd37" points="52.0241,836.987 52.0241,830.191 51.8516,830.191"/>
<polygon fill="#37dd37" points="52.0241,830.191 52.0241,823.396 51.8516,823.396"/>
<polygon fill="#3cf13c" points="51.8516,830.191 51.6792,823.396 51.8516,823.396"/>
<polygon fill="#39e439" points="52.0241,830.191 51.8516,823.396 51.8516,830.191"/>
<polygon fill="#1d761d" points="48.3477,836.987 48.3477,823.396 48.0027,823.396"/>
<polygon fill="#1d761d" points="48.3477,823.396 48.3477,809.805 48.0027,809.805"/>
<polygon fill="#186018" points="48.0027,823.396 47.6577,809.805 48.0027,809.805"/>
<polygon fill="#1b6e1b" points="48.3477,823.396 48.0027,809.805 48.0027,823.396"/>
<polyline fill="none" stroke="#999999" stroke-width="1" points="234.447,77.6049 216.02,86.9631 227.137,103.528 242.179,94.6187 234.447,77.6049"/>
<polyline fill="none" stroke="#999999" stroke-width="1" points="216.02,86.9631 199.25,99.0439 212.183,112.658 227.137,103.528 216.02,86.9631"/>
<polyline fill="none" stroke="#999999" stroke-width="1" points="254.041,71.0164 234.447,77.6049 242.179,94.6187 258.767,89.753 254.041,71.0164"/>
<polyline fill="none" stroke="#999999" stroke-width="1" points="199.25,99.0439 184.35,113.375 200.361,125.641 212.183,112.658 199.25,99.0439"/>
<polyline fill="none" stroke="#999999" stroke-width="1" points="274.305,66.9014 254.041,71.0164 258.767,89.753 277.467,86.7726 274.305,66.9014"/>
<polyline fill="none" stroke="#999999" stroke-width="1" points="184.35,113.375 171.284,129.401 188.913,140.898 200.361,125.641 184.35,113.375"/>
<polyline fill="none" stroke="#999999" stroke-width="1" points="294.891,64.938 274.305,66.9014 277.467,86.7726 296.57,84.4264 294.891,64.938"/>
<polyline fill="none" stroke="#999999" stroke-width="1" points="171.284,129.401 159.851,146.635 178.147,157.27 188.913,140.898 171.284,129.401"/>
<polyline fill="none" stroke="#999999" stroke-width="1" points="315.573,64.8425 294.891,64.938 296.57,84.4264 314.354,82.9488 315.573,64.8425"/>
<polyline fill="none" stroke="#999999" stroke-width="1" points="336.198,66.3842 315.573,64.8425 314.354,82.9488 332.11,85.888 336.198,66.3842"/>
<polyline fill="none" stroke="#999999" stroke-width="1" points="159.851,146.635 149.793,164.708 168.179,174.399 178.147,157.27 159.851,146.635"/>
<polyline fill="none" stroke="#999999" stroke-width="1" points="356.664,69.3839 336.198,66.3842 332.11,85.888 351.892,89.9327 356.664,69.3839"/>
<polyline fill="none" stroke="#999999" stroke-width="1" points="376.892,73.7062 356.664,69.3839 351.892,89.9327 372.51,94.2793 376.892,73.7062"/>
<polyline fill="none" stroke="#999999" stroke-width="1" points="396.819,79.2519 376.892,73.7062 372.51,94.2793 392.15,99.2078 396.819,79.2519"/>
<polyline fill="none" stroke="#999999" stroke-width="1" points="416.389,85.9518 396.819,79.2519 392.15,99.2078 410.432,105.004 416.389,85.9518"/>
<polyline fill="none" stroke="#999999" stroke-width="1" points="435.543,93.7621 416.389,85.9518 410.432,105.004 427.793,112.708 435.543,93.7621"/>
<polyline fill="none" stroke="#999999" stroke-width="1" points="454.216,102.661 435.543,93.7621 427.793,112.708 445.237,121.867 454.216,102.661"/>
<polyline fill="none" stroke="#999999" stroke-width="1" points="472.332,112.645 454.216,102.661 445.237,121.867 462.382,131.541 472.332,112.645"/>
<polyline fill="none" stroke="#999999" stroke-width="1" points="489.795,123.73 472.332,112.645 462.382,131.541 478.679,142.055 489.795,123.73"/>
<polyline fill="none" stroke="#999999" stroke-width="1" points="506.485,135.947 489.795,123.73 478.679,142.055 494.257,154.4 506.485,135.947"/>
<polyline fill="none" stroke="#999999" stroke-width="1" points="522.244,149.342 506.485,135.947 494.257,154.4 510.487,168.046 522.244,149.342"/>
<polyline fill="none" stroke="#999999" stroke-width="1" points="536.867,163.967 522.244,149.342 510.487,168.046 525.348,178.319 536.867,163.967"/>
<polyline fill="none" stroke="#999999" stroke-width="1" points="550.081,179.875 536.867,163.967 525.348,178.319 536.902,191.165 550.081,179.875"/>
<polyline fill="none" stroke="#999999" stroke-width="1" points="561.532,197.091 550.081,179.875 536.902,191.165 546.528,204.474 561.532,197.091"/>
<polyline fill="none" stroke="#999999" stroke-width="1" points="570.83,215.557 561.532,197.091 546.528,204.474 552.152,220.2 570.83,215.557"/>
<polyline fill="none" stroke="#999999" stroke-width="1" points="577.834,235.011 570.83,215.557 552.152,220.2 556.524,238.854 577.834,235.011"/>
<polyline fill="none" stroke="#999999" stroke-width="1" points="582.623,255.127 577.834,235.011 556.524,238.854 559.847,259.083 582.623,255.127"/>
<polyline fill="none" stroke="#999999" stroke-width="1" points="585.404,275.62 582.623,255.127 559.847,259.083 562.482,279.959 585.404,275.62"/>
<polyline fill="none" stroke="#999999" stroke-width="1" points="586.446,296.276 585.404,275.62 562.482,279.959 565.162,300.496 586.446,296.276"/>
<polyline fill="none" stroke="#999999" stroke-width="1" points="586.034,316.957 586.446,296.276 565.162,300.496 567.016,319.736 586.034,316.957"/>
<polyline fill="none" stroke="#999999" stroke-width="1" points="149.793,164.708 140.851,183.361 159.427,192.168 168.179,174.399 149.793,164.708"/>
<polyline fill="none" stroke="#999999" stroke-width="1" points="584.435,337.58 586.034,316.957 567.016,319.736 567.298,337.011 584.435,337.58"/>
<polyline fill="none" stroke="#999999" stroke-width="1" points="140.851,183.361 132.793,202.414 151.249,210.096 159.427,192.168 140.851,183.361"/>
<polyline fill="none" stroke="#999999" stroke-width="1" points="581.888,358.109 584.435,337.58 567.298,337.011 564.115,353.998 581.888,358.109"/>
<polyline fill="none" stroke="#999999" stroke-width="1" points="578.6,378.534 581.888,358.109 564.115,353.998 558.971,373.197 578.6,378.534"/>
<polyline fill="none" stroke="#999999" stroke-width="1" points="132.793,202.414 125.424,221.744 143.356,228.272 151.249,210.096 132.793,202.414"/>
<polyline fill="none" stroke="#999999" stroke-width="1" points="574.754,398.86 578.6,378.534 558.971,373.197 554.03,394.076 574.754,398.86"/>
<polyline fill="none" stroke="#999999" stroke-width="1" points="125.424,221.744 118.577,241.266 136.044,246.388 143.356,228.272 125.424,221.744"/>
<polyline fill="none" stroke="#999999" stroke-width="1" points="118.577,241.266 109.245,259.728 128.892,264.477 136.044,246.388 118.577,241.266"/>
<polyline fill="none" stroke="#999999" stroke-width="1" points="109.245,259.728 100.69,278.562 121.283,283.266 128.892,264.477 109.245,259.728"/>
<polyline fill="none" stroke="#999999" stroke-width="1" points="100.69,278.562 93.0695,297.793 113.959,302.289 121.283,283.266 100.69,278.562"/>
<polyline fill="none" stroke="#999999" stroke-width="1" points="93.0695,297.793 86.4308,317.385 107.14,321.142 113.959,302.289 93.0695,297.793"/>
<polyline fill="none" stroke="#999999" stroke-width="1" points="86.4308,317.385 80.6353,337.243 101.815,339.293 107.14,321.142 86.4308,317.385"/>
<polyline fill="none" stroke="#999999" stroke-width="1" points="80.6353,337.243 75.4732,357.275 97.4571,358.486 101.815,339.293 80.6353,337.243"/>
<polyline fill="none" stroke="#999999" stroke-width="1" points="75.4732,357.275 70.9173,377.454 93.6567,378.645 97.4571,358.486 75.4732,357.275"/>
<polyline fill="none" stroke="#999999" stroke-width="1" points="70.9173,377.454 66.9984,397.766 90.329,399.385 93.6567,378.645 70.9173,377.454"/>
<polyline fill="none" stroke="#999999" stroke-width="1" points="66.9984,397.766 63.7639,418.198 86.6413,420.272 90.329,399.385 66.9984,397.766"/>
<polyline fill="none" stroke="#999999" stroke-width="1" points="63.7639,418.198 61.2784,438.734 83.478,441.164 86.6413,420.272 63.7639,418.198"/>
<polyline fill="none" stroke="#999999" stroke-width="1" points="61.2784,438.734 59.6255,459.355 80.9633,462.142 83.478,441.164 61.2784,438.734"/>
<polyline fill="none" stroke="#999999" stroke-width="1" points="59.6255,459.355 58.9114,480.028 79.0152,482.065 80.9633,462.142 59.6255,459.355"/>
<polyline fill="none" stroke="#999999" stroke-width="1" points="58.9114,480.028 59.2689,500.71 77.7293,502.159 79.0152,482.065 58.9114,480.028"/>
<polyline fill="none" stroke="#999999" stroke-width="1" points="59.2689,500.71 60.8626,521.333 77.6228,520.376 77.7293,502.159 59.2689,500.71"/>
<polyline fill="none" stroke="#999999" stroke-width="1" points="60.8626,521.333 63.8939,541.793 79.0042,537.09 77.6228,520.376 60.8626,521.333"/>
<polyline fill="none" stroke="#999999" stroke-width="1" points="63.8939,541.793 68.6016,561.931 84.2458,552.935 79.0042,537.09 63.8939,541.793"/>
<polyline fill="none" stroke="#999999" stroke-width="1" points="68.6016,561.931 75.2527,581.51 91.5509,569.567 84.2458,552.935 68.6016,561.931"/>
<polyline fill="none" stroke="#999999" stroke-width="1" points="75.2527,581.51 84.1122,600.191 101.073,586.544 91.5509,569.567 75.2527,581.51"/>
<polyline fill="none" stroke="#999999" stroke-width="1" points="84.1122,600.191 95.3783,617.521 111.869,602.745 101.073,586.544 84.1122,600.191"/>
<polyline fill="none" stroke="#999999" stroke-width="1" points="95.3783,617.521 109.043,633.03 124.011,617.658 111.869,602.745 95.3783,617.521"/>
<polyline fill="none" stroke="#999999" stroke-width="1" points="109.043,633.03 124.689,646.544 137.268,629.902 124.011,617.658 109.043,633.03"/>
<polyline fill="none" stroke="#999999" stroke-width="1" points="124.689,646.544 141.827,658.112 153.697,637.69 137.268,629.902 124.689,646.544"/>
<polyline fill="none" stroke="#999999" stroke-width="1" points="141.827,658.112 160.059,667.874 171.974,647.858 153.697,637.69 141.827,658.112"/>
<polyline fill="none" stroke="#999999" stroke-width="1" points="160.059,667.874 179.08,675.995 190.206,657.076 171.974,647.858 160.059,667.874"/>
<polyline fill="none" stroke="#999999" stroke-width="1" points="179.08,675.995 198.669,682.635 207.771,665.142 190.206,657.076 179.08,675.995"/>
<polyline fill="none" stroke="#999999" stroke-width="1" points="198.669,682.635 218.663,687.932 223.776,671.316 207.771,665.142 198.669,682.635"/>
<polyline fill="none" stroke="#999999" stroke-width="1" points="218.663,687.932 238.944,692 240.892,673.661 223.776,671.316 218.663,687.932"/>
<polyline fill="none" stroke="#999999" stroke-width="1" points="238.944,692 259.424,694.911 259.766,675.212 240.892,673.661 238.944,692"/>
<polyline fill="none" stroke="#999999" stroke-width="1" points="259.424,694.911 280.033,696.681 279.076,676.219 259.766,675.212 259.424,694.911"/>
<polyline fill="none" stroke="#999999" stroke-width="1" points="280.033,696.681 300.709,697.308 298.733,675.555 279.076,676.219 280.033,696.681"/>
<polyline fill="none" stroke="#999999" stroke-width="1" points="300.709,697.308 321.387,696.772 318.959,673.686 298.733,675.555 300.709,697.308"/>
<polyline fill="none" stroke="#999999" stroke-width="1" points="321.387,696.772 341.999,695.038 339.455,671.803 318.959,673.686 321.387,696.772"/>
<polyline fill="none" stroke="#999999" stroke-width="1" points="341.999,695.038 362.468,692.058 359.715,669.962 339.455,671.803 341.999,695.038"/>
<polyline fill="none" stroke="#999999" stroke-width="1" points="362.468,692.058 382.701,687.763 377.707,667.959 359.715,669.962 362.468,692.058"/>
<polyline fill="none" stroke="#999999" stroke-width="1" points="382.701,687.763 402.586,682.07 394.288,661.505 377.707,667.959 382.701,687.763"/>
<polyline fill="none" stroke="#999999" stroke-width="1" points="402.586,682.07 421.979,674.882 412.499,653.51 394.288,661.505 402.586,682.07"/>
<polyline fill="none" stroke="#999999" stroke-width="1" points="421.979,674.882 440.698,666.09 430.806,644.794 412.499,653.51 421.979,674.882"/>
<polyline fill="none" stroke="#999999" stroke-width="1" points="440.698,666.09 458.511,655.585 448.117,634.882 430.806,644.794 440.698,666.09"/>
<polyline fill="none" stroke="#999999" stroke-width="1" points="458.511,655.585 475.128,643.28 464.231,624.018 448.117,634.882 458.511,655.585"/>
<polyline fill="none" stroke="#999999" stroke-width="1" points="475.128,643.28 490.208,629.136 478.637,612.695 464.231,624.018 475.128,643.28"/>
<polyline fill="none" stroke="#999999" stroke-width="1" points="490.208,629.136 503.444,613.252 490.312,601.072 478.637,612.695 490.208,629.136"/>
<polyline fill="none" stroke="#999999" stroke-width="1" points="503.444,613.252 514.829,595.99 498.301,586.597 490.312,601.072 503.444,613.252"/>
<polyline fill="none" stroke="#999999" stroke-width="1" points="514.829,595.99 524.538,577.729 505.333,569.974 498.301,586.597 514.829,595.99"/>
<polyline fill="none" stroke="#999999" stroke-width="1" points="524.538,577.729 532.818,558.774 511.848,551.263 505.333,569.974 524.538,577.729"/>
<polyline fill="none" stroke="#999999" stroke-width="1" points="532.818,558.774 539.931,539.35 518.053,531.993 511.848,551.263 532.818,558.774"/>
<polyline fill="none" stroke="#999999" stroke-width="1" points="539.931,539.35 546.13,519.615 524.086,512.056 518.053,531.993 539.931,539.35"/>
<polyline fill="none" stroke="#999999" stroke-width="1" points="546.13,519.615 551.643,499.675 529.894,492.148 524.086,512.056 546.13,519.615"/>
<polyline fill="none" stroke="#999999" stroke-width="1" points="570.511,419.108 574.754,398.86 554.03,394.076 552.627,413.99 570.511,419.108"/>
<polyline fill="none" stroke="#999999" stroke-width="1" points="566.019,439.302 570.511,419.108 552.627,413.99 547.571,432.327 566.019,439.302"/>
<polyline fill="none" stroke="#999999" stroke-width="1" points="551.643,499.675 556.674,479.609 535.72,472.006 529.894,492.148 551.643,499.675"/>
<polyline fill="none" stroke="#999999" stroke-width="1" points="561.411,459.47 566.019,439.302 547.571,432.327 541.686,451.858 561.411,459.47"/>
<polyline fill="none" stroke="#999999" stroke-width="1" points="556.674,479.609 561.411,459.47 541.686,451.858 535.72,472.006 556.674,479.609"/>
<polyline fill="none" stroke="#999999" stroke-width="1" points="153.697,637.69 171.974,647.858 183.902,627.94 163.454,614.188 153.697,637.69"/>
<polyline fill="none" stroke="#999999" stroke-width="1" points="171.974,647.858 190.206,657.076 201.998,639.31 183.902,627.94 171.974,647.858"/>
<polyline fill="none" stroke="#999999" stroke-width="1" points="137.268,629.902 153.697,637.69 163.454,614.188 146.212,616.418 137.268,629.902"/>
<polyline fill="none" stroke="#999999" stroke-width="1" points="124.011,617.658 137.268,629.902 146.212,616.418 137.49,604.217 124.011,617.658"/>
<polyline fill="none" stroke="#999999" stroke-width="1" points="111.869,602.745 124.011,617.658 137.49,604.217 127.014,589.256 111.869,602.745"/>
<polyline fill="none" stroke="#999999" stroke-width="1" points="101.073,586.544 111.869,602.745 127.014,589.256 115.836,572.885 101.073,586.544"/>
<polyline fill="none" stroke="#999999" stroke-width="1" points="91.5509,569.567 101.073,586.544 115.836,572.885 105.047,557.206 91.5509,569.567"/>
<polyline fill="none" stroke="#999999" stroke-width="1" points="190.206,657.076 207.771,665.142 218.312,649.701 201.998,639.31 190.206,657.076"/>
<polyline fill="none" stroke="#999999" stroke-width="1" points="207.771,665.142 223.776,671.316 227.743,659.116 218.312,649.701 207.771,665.142"/>
<polyline fill="none" stroke="#999999" stroke-width="1" points="223.776,671.316 240.892,673.661 241.081,656.115 227.743,659.116 223.776,671.316"/>
<polyline fill="none" stroke="#999999" stroke-width="1" points="84.2458,552.935 91.5509,569.567 105.047,557.206 96.0625,543.538 84.2458,552.935"/>
<polyline fill="none" stroke="#999999" stroke-width="1" points="79.0042,537.09 84.2458,552.935 96.0625,543.538 88.9394,534.359 79.0042,537.09"/>
<polyline fill="none" stroke="#999999" stroke-width="1" points="77.6228,520.376 79.0042,537.09 88.9394,534.359 91.7514,522.45 77.6228,520.376"/>
<polyline fill="none" stroke="#999999" stroke-width="1" points="77.7293,502.159 77.6228,520.376 91.7514,522.45 94.5874,506.419 77.7293,502.159"/>
<polyline fill="none" stroke="#999999" stroke-width="1" points="79.0152,482.065 77.7293,502.159 94.5874,506.419 98.2033,486.979 79.0152,482.065"/>
<polyline fill="none" stroke="#999999" stroke-width="1" points="80.9633,462.142 79.0152,482.065 98.2033,486.979 101.932,467.017 80.9633,462.142"/>
<polyline fill="none" stroke="#999999" stroke-width="1" points="83.478,441.164 80.9633,462.142 101.932,467.017 105.688,445.254 83.478,441.164"/>
<polyline fill="none" stroke="#999999" stroke-width="1" points="86.6413,420.272 83.478,441.164 105.688,445.254 109.625,423.445 86.6413,420.272"/>
<polyline fill="none" stroke="#999999" stroke-width="1" points="90.329,399.385 86.6413,420.272 109.625,423.445 113.239,401.053 90.329,399.385"/>
<polyline fill="none" stroke="#999999" stroke-width="1" points="93.6567,378.645 90.329,399.385 113.239,401.053 115.288,379.514 93.6567,378.645"/>
<polyline fill="none" stroke="#999999" stroke-width="1" points="97.4571,358.486 93.6567,378.645 115.288,379.514 117.436,359.357 97.4571,358.486"/>
<polyline fill="none" stroke="#999999" stroke-width="1" points="101.815,339.293 97.4571,358.486 117.436,359.357 120.023,341.931 101.815,339.293"/>
<polyline fill="none" stroke="#999999" stroke-width="1" points="107.14,321.142 101.815,339.293 120.023,341.931 125.735,326.702 107.14,321.142"/>
<polyline fill="none" stroke="#999999" stroke-width="1" points="113.959,302.289 107.14,321.142 125.735,326.702 133.922,308.919 113.959,302.289"/>
<polyline fill="none" stroke="#999999" stroke-width="1" points="121.283,283.266 113.959,302.289 133.922,308.919 141.923,289.964 121.283,283.266"/>
<polyline fill="none" stroke="#999999" stroke-width="1" points="128.892,264.477 121.283,283.266 141.923,289.964 149.218,269.344 128.892,264.477"/>
<polyline fill="none" stroke="#999999" stroke-width="1" points="136.044,246.388 128.892,264.477 149.218,269.344 153.349,251.535 136.044,246.388"/>
<polyline fill="none" stroke="#999999" stroke-width="1" points="143.356,228.272 136.044,246.388 153.349,251.535 160.375,235.292 143.356,228.272"/>
<polyline fill="none" stroke="#999999" stroke-width="1" points="151.249,210.096 143.356,228.272 160.375,235.292 168.786,218.208 151.249,210.096"/>
<polyline fill="none" stroke="#999999" stroke-width="1" points="159.427,192.168 151.249,210.096 168.786,218.208 177.457,201.086 159.427,192.168"/>
<polyline fill="none" stroke="#999999" stroke-width="1" points="168.179,174.399 159.427,192.168 177.457,201.086 186.386,183.866 168.179,174.399"/>
<polyline fill="none" stroke="#999999" stroke-width="1" points="178.147,157.27 168.179,174.399 186.386,183.866 196.288,166.997 178.147,157.27"/>
<polyline fill="none" stroke="#999999" stroke-width="1" points="188.913,140.898 178.147,157.27 196.288,166.997 206.597,150.292 188.913,140.898"/>
<polyline fill="none" stroke="#999999" stroke-width="1" points="200.361,125.641 188.913,140.898 206.597,150.292 215.602,134.726 200.361,125.641"/>
<polyline fill="none" stroke="#999999" stroke-width="1" points="212.183,112.658 200.361,125.641 215.602,134.726 221.984,122.419 212.183,112.658"/>
<polyline fill="none" stroke="#999999" stroke-width="1" points="227.137,103.528 212.183,112.658 221.984,122.419 237.698,119.212 227.137,103.528"/>
<polyline fill="none" stroke="#999999" stroke-width="1" points="242.179,94.6187 227.137,103.528 237.698,119.212 247.17,106.917 242.179,94.6187"/>
<polyline fill="none" stroke="#999999" stroke-width="1" points="258.767,89.753 242.179,94.6187 247.17,106.917 261.242,106.39 258.767,89.753"/>
<polyline fill="none" stroke="#999999" stroke-width="1" points="277.467,86.7726 258.767,89.753 261.242,106.39 280.166,105.079 277.467,86.7726"/>
<polyline fill="none" stroke="#999999" stroke-width="1" points="296.57,84.4264 277.467,86.7726 280.166,105.079 299.966,102.261 296.57,84.4264"/>
<polyline fill="none" stroke="#999999" stroke-width="1" points="314.354,82.9488 296.57,84.4264 299.966,102.261 313.294,96.3768 314.354,82.9488"/>
<polyline fill="none" stroke="#999999" stroke-width="1" points="332.11,85.888 314.354,82.9488 313.294,96.3768 325.561,103.92 332.11,85.888"/>
<polyline fill="none" stroke="#999999" stroke-width="1" points="351.892,89.9327 332.11,85.888 325.561,103.92 346.285,110.18 351.892,89.9327"/>
<polyline fill="none" stroke="#999999" stroke-width="1" points="372.51,94.2793 351.892,89.9327 346.285,110.18 368.156,114.563 372.51,94.2793"/>
<polyline fill="none" stroke="#999999" stroke-width="1" points="392.15,99.2078 372.51,94.2793 368.156,114.563 388.186,117.967 392.15,99.2078"/>
<polyline fill="none" stroke="#999999" stroke-width="1" points="410.432,105.004 392.15,99.2078 388.186,117.967 404.901,121.957 410.432,105.004"/>
<polyline fill="none" stroke="#999999" stroke-width="1" points="427.793,112.708 410.432,105.004 404.901,121.957 419.759,130.108 427.793,112.708"/>
<polyline fill="none" stroke="#999999" stroke-width="1" points="445.237,121.867 427.793,112.708 419.759,130.108 435.935,140.282 445.237,121.867"/>
<polyline fill="none" stroke="#999999" stroke-width="1" points="462.382,131.541 445.237,121.867 435.935,140.282 452.873,149.247 462.382,131.541"/>
<polyline fill="none" stroke="#999999" stroke-width="1" points="478.679,142.055 462.382,131.541 452.873,149.247 468.128,158.182 478.679,142.055"/>
<polyline fill="none" stroke="#999999" stroke-width="1" points="494.257,154.4 478.679,142.055 468.128,158.182 481.627,171.679 494.257,154.4"/>
<polyline fill="none" stroke="#999999" stroke-width="1" points="510.487,168.046 494.257,154.4 481.627,171.679 499.478,190.199 510.487,168.046"/>
<polyline fill="none" stroke="#999999" stroke-width="1" points="525.348,178.319 510.487,168.046 499.478,190.199 516.854,190.128 525.348,178.319"/>
<polyline fill="none" stroke="#999999" stroke-width="1" points="536.902,191.165 525.348,178.319 516.854,190.128 525.496,201.833 536.902,191.165"/>
<polyline fill="none" stroke="#999999" stroke-width="1" points="240.892,673.661 259.766,675.212 259.549,656.412 241.081,656.115 240.892,673.661"/>
<polyline fill="none" stroke="#999999" stroke-width="1" points="259.766,675.212 279.076,676.219 277.878,656.179 259.549,656.412 259.766,675.212"/>
<polyline fill="none" stroke="#999999" stroke-width="1" points="279.076,676.219 298.733,675.555 296.449,653.702 277.878,656.179 279.076,676.219"/>
<polyline fill="none" stroke="#999999" stroke-width="1" points="298.733,675.555 318.959,673.686 316.502,650.234 296.449,653.702 298.733,675.555"/>
<polyline fill="none" stroke="#999999" stroke-width="1" points="318.959,673.686 339.455,671.803 337.961,648.273 316.502,650.234 318.959,673.686"/>
<polyline fill="none" stroke="#999999" stroke-width="1" points="339.455,671.803 359.715,669.962 359.502,648.531 337.961,648.273 339.455,671.803"/>
<polyline fill="none" stroke="#999999" stroke-width="1" points="359.715,669.962 377.707,667.959 373.728,652.934 359.502,648.531 359.715,669.962"/>
<polyline fill="none" stroke="#999999" stroke-width="1" points="377.707,667.959 394.288,661.505 384.359,642.482 373.728,652.934 377.707,667.959"/>
<polyline fill="none" stroke="#999999" stroke-width="1" points="394.288,661.505 412.499,653.51 402.629,632.79 384.359,642.482 394.288,661.505"/>
<polyline fill="none" stroke="#999999" stroke-width="1" points="412.499,653.51 430.806,644.794 421.672,623.8 402.629,632.79 412.499,653.51"/>
<polyline fill="none" stroke="#999999" stroke-width="1" points="430.806,644.794 448.117,634.882 439.519,614.956 421.672,623.8 430.806,644.794"/>
<polyline fill="none" stroke="#999999" stroke-width="1" points="448.117,634.882 464.231,624.018 456.42,606.243 439.519,614.956 448.117,634.882"/>
<polyline fill="none" stroke="#999999" stroke-width="1" points="464.231,624.018 478.637,612.695 470.727,598.331 456.42,606.243 464.231,624.018"/>
<polyline fill="none" stroke="#999999" stroke-width="1" points="478.637,612.695 490.312,601.072 481.473,593.602 470.727,598.331 478.637,612.695"/>
<polyline fill="none" stroke="#999999" stroke-width="1" points="490.312,601.072 498.301,586.597 483.38,581.404 481.473,593.602 490.312,601.072"/>
<polyline fill="none" stroke="#999999" stroke-width="1" points="498.301,586.597 505.333,569.974 487.057,565.484 483.38,581.404 498.301,586.597"/>
<polyline fill="none" stroke="#999999" stroke-width="1" points="505.333,569.974 511.848,551.263 491.39,547.007 487.057,565.484 505.333,569.974"/>
<polyline fill="none" stroke="#999999" stroke-width="1" points="511.848,551.263 518.053,531.993 496.298,526.58 491.39,547.007 511.848,551.263"/>
<polyline fill="none" stroke="#999999" stroke-width="1" points="518.053,531.993 524.086,512.056 501.794,506.396 496.298,526.58 518.053,531.993"/>
<polyline fill="none" stroke="#999999" stroke-width="1" points="524.086,512.056 529.894,492.148 507.759,485.317 501.794,506.396 524.086,512.056"/>
<polyline fill="none" stroke="#999999" stroke-width="1" points="529.894,492.148 535.72,472.006 514.264,464.285 507.759,485.317 529.894,492.148"/>
<polyline fill="none" stroke="#999999" stroke-width="1" points="535.72,472.006 541.686,451.858 521.274,443.15 514.264,464.285 535.72,472.006"/>
<polyline fill="none" stroke="#999999" stroke-width="1" points="541.686,451.858 547.571,432.327 529.953,424.157 521.274,443.15 541.686,451.858"/>
<polyline fill="none" stroke="#999999" stroke-width="1" points="547.571,432.327 552.627,413.99 537.449,409.467 529.953,424.157 547.571,432.327"/>
<polyline fill="none" stroke="#999999" stroke-width="1" points="552.627,413.99 554.03,394.076 529.431,389.65 537.449,409.467 552.627,413.99"/>
<polyline fill="none" stroke="#999999" stroke-width="1" points="554.03,394.076 558.971,373.197 539.434,365.156 529.431,389.65 554.03,394.076"/>
<polyline fill="none" stroke="#999999" stroke-width="1" points="558.971,373.197 564.115,353.998 548.722,347.308 539.434,365.156 558.971,373.197"/>
<polyline fill="none" stroke="#999999" stroke-width="1" points="564.115,353.998 567.298,337.011 555.357,336.276 548.722,347.308 564.115,353.998"/>
<polyline fill="none" stroke="#999999" stroke-width="1" points="567.298,337.011 567.016,319.736 550.469,324.142 555.357,336.276 567.298,337.011"/>
<polyline fill="none" stroke="#999999" stroke-width="1" points="567.016,319.736 565.162,300.496 545.035,305.712 550.469,324.142 567.016,319.736"/>
<polyline fill="none" stroke="#999999" stroke-width="1" points="546.528,204.474 536.902,191.165 525.496,201.833 535.363,209.414 546.528,204.474"/>
<polyline fill="none" stroke="#999999" stroke-width="1" points="565.162,300.496 562.482,279.959 540.047,284.318 545.035,305.712 565.162,300.496"/>
<polyline fill="none" stroke="#999999" stroke-width="1" points="562.482,279.959 559.847,259.083 537.571,262.076 540.047,284.318 562.482,279.959"/>
<polyline fill="none" stroke="#999999" stroke-width="1" points="559.847,259.083 556.524,238.854 535.681,241.315 537.571,262.076 559.847,259.083"/>
<polyline fill="none" stroke="#999999" stroke-width="1" points="556.524,238.854 552.152,220.2 534.066,221.935 535.681,241.315 556.524,238.854"/>
<polyline fill="none" stroke="#999999" stroke-width="1" points="552.152,220.2 546.528,204.474 535.363,209.414 534.066,221.935 552.152,220.2"/>
<polyline fill="none" stroke="#999999" stroke-width="1" points="419.759,130.108 404.901,121.957 401.026,134.658 410.208,145.334 419.759,130.108"/>
<polyline fill="none" stroke="#999999" stroke-width="1" points="435.935,140.282 419.759,130.108 410.208,145.334 425.835,159.548 435.935,140.282"/>
<polyline fill="none" stroke="#999999" stroke-width="1" points="404.901,121.957 388.186,117.967 387.267,136.368 401.026,134.658 404.901,121.957"/>
<polyline fill="none" stroke="#999999" stroke-width="1" points="388.186,117.967 368.156,114.563 365.552,136.26 387.267,136.368 388.186,117.967"/>
<polyline fill="none" stroke="#999999" stroke-width="1" points="368.156,114.563 346.285,110.18 339.173,133.255 365.552,136.26 368.156,114.563"/>
<polyline fill="none" stroke="#999999" stroke-width="1" points="346.285,110.18 325.561,103.92 310.222,123.032 339.173,133.255 346.285,110.18"/>
<polyline fill="none" stroke="#999999" stroke-width="1" points="325.561,103.92 313.294,96.3768 299.966,102.261 310.222,123.032 325.561,103.92"/>
<polyline fill="none" stroke="#999999" stroke-width="1" points="535.681,241.315 534.066,221.935 512.499,216.643 515.076,241.369 535.681,241.315"/>
<polyline fill="none" stroke="#999999" stroke-width="1" points="534.066,221.935 535.363,209.414 525.496,201.833 512.499,216.643 534.066,221.935"/>
<polyline fill="none" stroke="#999999" stroke-width="1" points="537.571,262.076 535.681,241.315 515.076,241.369 514.709,263.587 537.571,262.076"/>
<polyline fill="none" stroke="#999999" stroke-width="1" points="540.047,284.318 537.571,262.076 514.709,263.587 515.634,288.499 540.047,284.318"/>
<polyline fill="none" stroke="#999999" stroke-width="1" points="545.035,305.712 540.047,284.318 515.634,288.499 524.462,313.891 545.035,305.712"/>
<polyline fill="none" stroke="#999999" stroke-width="1" points="550.469,324.142 545.035,305.712 524.462,313.891 535.982,333.802 550.469,324.142"/>
<polyline fill="none" stroke="#999999" stroke-width="1" points="555.357,336.276 550.469,324.142 535.982,333.802 548.722,347.308 555.357,336.276"/>
<polyline fill="none" stroke="#999999" stroke-width="1" points="259.549,656.412 277.878,656.179 276.128,636.84 258.49,636.594 259.549,656.412"/>
<polyline fill="none" stroke="#999999" stroke-width="1" points="277.878,656.179 296.449,653.702 292.709,632 276.128,636.84 277.878,656.179"/>
<polyline fill="none" stroke="#999999" stroke-width="1" points="241.081,656.115 259.549,656.412 258.49,636.594 235.734,635.235 241.081,656.115"/>
<polyline fill="none" stroke="#999999" stroke-width="1" points="227.743,659.116 241.081,656.115 235.734,635.235 218.312,649.701 227.743,659.116"/>
<polyline fill="none" stroke="#999999" stroke-width="1" points="296.449,653.702 316.502,650.234 312.64,625.275 292.709,632 296.449,653.702"/>
<polyline fill="none" stroke="#999999" stroke-width="1" points="285.62,612.182 275.22,622.129 276.128,636.84 292.709,632 285.62,612.182"/>
<polyline fill="none" stroke="#999999" stroke-width="1" points="316.502,650.234 337.961,648.273 337.457,622.445 312.64,625.275 316.502,650.234"/>
<polyline fill="none" stroke="#999999" stroke-width="1" points="337.961,648.273 359.502,648.531 366.604,622.955 337.457,622.445 337.961,648.273"/>
<polyline fill="none" stroke="#999999" stroke-width="1" points="359.502,648.531 373.728,652.934 384.359,642.482 366.604,622.955 359.502,648.531"/>
<polyline fill="none" stroke="#999999" stroke-width="1" points="384.359,642.482 402.629,632.79 392.177,611.051 366.604,622.955 384.359,642.482"/>
<polyline fill="none" stroke="#999999" stroke-width="1" points="402.629,632.79 421.672,623.8 413.991,602.191 392.177,611.051 402.629,632.79"/>
<polyline fill="none" stroke="#999999" stroke-width="1" points="421.672,623.8 439.519,614.956 433.464,594.65 413.991,602.191 421.672,623.8"/>
<polyline fill="none" stroke="#999999" stroke-width="1" points="439.519,614.956 456.42,606.243 451.973,588.02 433.464,594.65 439.519,614.956"/>
<polyline fill="none" stroke="#999999" stroke-width="1" points="456.42,606.243 470.727,598.331 468.412,583.029 451.973,588.02 456.42,606.243"/>
<polyline fill="none" stroke="#999999" stroke-width="1" points="470.727,598.331 481.473,593.602 483.38,581.404 468.412,583.029 470.727,598.331"/>
<polyline fill="none" stroke="#999999" stroke-width="1" points="483.38,581.404 487.057,565.484 468.336,564.714 468.412,583.029 483.38,581.404"/>
<polyline fill="none" stroke="#999999" stroke-width="1" points="487.057,565.484 491.39,547.007 470.83,545.713 468.336,564.714 487.057,565.484"/>
<polyline fill="none" stroke="#999999" stroke-width="1" points="491.39,547.007 496.298,526.58 474.152,524.205 470.83,545.713 491.39,547.007"/>
<polyline fill="none" stroke="#999999" stroke-width="1" points="496.298,526.58 501.794,506.396 478.746,502.592 474.152,524.205 496.298,526.58"/>
<polyline fill="none" stroke="#999999" stroke-width="1" points="501.794,506.396 507.759,485.317 483.84,479.781 478.746,502.592 501.794,506.396"/>
<polyline fill="none" stroke="#999999" stroke-width="1" points="507.759,485.317 514.264,464.285 490.658,455.998 483.84,479.781 507.759,485.317"/>
<polyline fill="none" stroke="#999999" stroke-width="1" points="514.264,464.285 521.274,443.15 499.195,432.299 490.658,455.998 514.264,464.285"/>
<polyline fill="none" stroke="#999999" stroke-width="1" points="521.274,443.15 529.953,424.157 511.562,409.88 499.195,432.299 521.274,443.15"/>
<polyline fill="none" stroke="#999999" stroke-width="1" points="529.953,424.157 537.449,409.467 529.431,389.65 511.562,409.88 529.953,424.157"/>
<polyline fill="none" stroke="#999999" stroke-width="1" points="539.434,365.156 548.722,347.308 535.982,333.802 520.754,348.828 539.434,365.156"/>
<polyline fill="none" stroke="#999999" stroke-width="1" points="529.431,389.65 539.434,365.156 520.754,348.828 504.677,369.674 529.431,389.65"/>
<polyline fill="none" stroke="#999999" stroke-width="1" points="499.478,190.199 481.627,171.679 465.021,183.603 475.97,204.671 499.478,190.199"/>
<polyline fill="none" stroke="#999999" stroke-width="1" points="516.854,190.128 499.478,190.199 512.499,216.643 525.496,201.833 516.854,190.128"/>
<polyline fill="none" stroke="#999999" stroke-width="1" points="512.499,216.643 499.478,190.199 475.97,204.671 488.844,227.123 512.499,216.643"/>
<polyline fill="none" stroke="#999999" stroke-width="1" points="481.627,171.679 468.128,158.182 459.469,169.522 465.021,183.603 481.627,171.679"/>
<polyline fill="none" stroke="#999999" stroke-width="1" points="98.2033,486.979 94.5874,506.419 110.666,514.087 116.955,495.34 98.2033,486.979"/>
<polyline fill="none" stroke="#999999" stroke-width="1" points="101.932,467.017 98.2033,486.979 116.955,495.34 122.875,473.694 101.932,467.017"/>
<polyline fill="none" stroke="#999999" stroke-width="1" points="94.5874,506.419 91.7514,522.45 103.917,530.51 110.666,514.087 94.5874,506.419"/>
<polyline fill="none" stroke="#999999" stroke-width="1" points="91.7514,522.45 88.9394,534.359 96.0625,543.538 103.917,530.51 91.7514,522.45"/>
<polyline fill="none" stroke="#999999" stroke-width="1" points="105.688,445.254 101.932,467.017 122.875,473.694 128.328,451.342 105.688,445.254"/>
<polyline fill="none" stroke="#999999" stroke-width="1" points="109.625,423.445 105.688,445.254 128.328,451.342 132.901,427.47 109.625,423.445"/>
<polyline fill="none" stroke="#999999" stroke-width="1" points="113.239,401.053 109.625,423.445 132.901,427.47 136.138,402.757 113.239,401.053"/>
<polyline fill="none" stroke="#999999" stroke-width="1" points="115.288,379.514 113.239,401.053 136.138,402.757 136.819,379.003 115.288,379.514"/>
<polyline fill="none" stroke="#999999" stroke-width="1" points="117.436,359.357 115.288,379.514 136.819,379.003 135.149,358.611 117.436,359.357"/>
<polyline fill="none" stroke="#999999" stroke-width="1" points="120.023,341.931 117.436,359.357 135.149,358.611 132.342,345.119 120.023,341.931"/>
<polyline fill="none" stroke="#999999" stroke-width="1" points="125.735,326.702 120.023,341.931 132.342,345.119 141.099,336.065 125.735,326.702"/>
<polyline fill="none" stroke="#999999" stroke-width="1" points="133.922,308.919 125.735,326.702 141.099,336.065 153.407,320.375 133.922,308.919"/>
<polyline fill="none" stroke="#999999" stroke-width="1" points="141.923,289.964 133.922,308.919 153.407,320.375 163.271,298.328 141.923,289.964"/>
<polyline fill="none" stroke="#999999" stroke-width="1" points="149.218,269.344 141.923,289.964 163.271,298.328 173.227,273.445 149.218,269.344"/>
<polyline fill="none" stroke="#999999" stroke-width="1" points="153.349,251.535 149.218,269.344 173.227,273.445 167.424,255.545 153.349,251.535"/>
<polyline fill="none" stroke="#999999" stroke-width="1" points="160.375,235.292 153.349,251.535 167.424,255.545 176.009,243.154 160.375,235.292"/>
<polyline fill="none" stroke="#999999" stroke-width="1" points="168.786,218.208 160.375,235.292 176.009,243.154 185.651,227.195 168.786,218.208"/>
<polyline fill="none" stroke="#999999" stroke-width="1" points="177.457,201.086 168.786,218.208 185.651,227.195 195.229,210.101 177.457,201.086"/>
<polyline fill="none" stroke="#999999" stroke-width="1" points="186.386,183.866 177.457,201.086 195.229,210.101 204.758,193.169 186.386,183.866"/>
<polyline fill="none" stroke="#999999" stroke-width="1" points="196.288,166.997 186.386,183.866 204.758,193.169 215.006,176.071 196.288,166.997"/>
<polyline fill="none" stroke="#999999" stroke-width="1" points="206.597,150.292 196.288,166.997 215.006,176.071 225.584,158.547 206.597,150.292"/>
<polyline fill="none" stroke="#999999" stroke-width="1" points="215.602,134.726 206.597,150.292 225.584,158.547 233.335,139.385 215.602,134.726"/>
<polyline fill="none" stroke="#999999" stroke-width="1" points="221.984,122.419 215.602,134.726 233.335,139.385 237.698,119.212 221.984,122.419"/>
<polyline fill="none" stroke="#999999" stroke-width="1" points="247.17,106.917 237.698,119.212 258.866,123.812 261.242,106.39 247.17,106.917"/>
<polyline fill="none" stroke="#999999" stroke-width="1" points="299.966,102.261 280.166,105.079 281.849,124.678 310.222,123.032 299.966,102.261"/>
<polyline fill="none" stroke="#999999" stroke-width="1" points="280.166,105.079 261.242,106.39 258.866,123.812 281.849,124.678 280.166,105.079"/>
<polyline fill="none" stroke="#999999" stroke-width="1" points="115.836,572.885 127.014,589.256 141.785,575.562 129.211,558.273 115.836,572.885"/>
<polyline fill="none" stroke="#999999" stroke-width="1" points="105.047,557.206 115.836,572.885 129.211,558.273 116.214,542.99 105.047,557.206"/>
<polyline fill="none" stroke="#999999" stroke-width="1" points="96.0625,543.538 105.047,557.206 116.214,542.99 103.917,530.51 96.0625,543.538"/>
<polyline fill="none" stroke="#999999" stroke-width="1" points="127.014,589.256 137.49,604.217 152.724,593.536 141.785,575.562 127.014,589.256"/>
<polyline fill="none" stroke="#999999" stroke-width="1" points="137.49,604.217 146.212,616.418 163.454,614.188 152.724,593.536 137.49,604.217"/>
<polyline fill="none" stroke="#999999" stroke-width="1" points="163.454,614.188 183.902,627.94 197.801,609.205 180.735,595.356 163.454,614.188"/>
<polyline fill="none" stroke="#999999" stroke-width="1" points="183.902,627.94 201.998,639.31 215.543,622.019 197.801,609.205 183.902,627.94"/>
<polyline fill="none" stroke="#999999" stroke-width="1" points="201.998,639.31 218.312,649.701 235.734,635.235 215.543,622.019 201.998,639.31"/>
<polyline fill="none" stroke="#999999" stroke-width="1" points="459.469,169.522 468.128,158.182 452.873,149.247 445.257,166.782 459.469,169.522"/>
<polyline fill="none" stroke="#999999" stroke-width="1" points="465.021,183.603 459.469,169.522 445.257,166.782 443.152,188.317 465.021,183.603"/>
<polyline fill="none" stroke="#999999" stroke-width="1" points="468.412,583.029 468.336,564.714 449.595,568.156 451.973,588.02 468.412,583.029"/>
<polyline fill="none" stroke="#999999" stroke-width="1" points="163.454,614.188 180.735,595.356 167.743,579.229 152.724,593.536 163.454,614.188"/>
<polyline fill="none" stroke="#999999" stroke-width="1" points="435.935,140.282 425.835,159.548 445.257,166.782 452.873,149.247 435.935,140.282"/>
<polyline fill="none" stroke="#999999" stroke-width="1" points="433.464,594.65 451.973,588.02 449.595,568.156 429.91,573.172 433.464,594.65"/>
<polyline fill="none" stroke="#999999" stroke-width="1" points="425.835,159.548 410.208,145.334 394.212,157.022 411.379,185.494 425.835,159.548 411.379,185.494 443.152,188.317 445.257,166.782 425.835,159.548"/>
<polyline fill="none" stroke="#999999" stroke-width="1" points="410.208,145.334 401.026,134.658 387.267,136.368 394.212,157.022 410.208,145.334"/>
<polyline fill="none" stroke="#999999" stroke-width="1" points="413.991,602.191 433.464,594.65 429.91,573.172 408.649,579.262 413.991,602.191"/>
<polyline fill="none" stroke="#999999" stroke-width="1" points="392.177,611.051 413.991,602.191 408.649,579.262 385.858,585.172 392.177,611.051"/>
<polyline fill="none" stroke="#999999" stroke-width="1" points="515.076,241.369 512.499,216.643 488.844,227.123 498.379,243.138 515.076,241.369"/>
<polyline fill="none" stroke="#999999" stroke-width="1" points="237.698,119.212 233.335,139.385 254.686,144.475 258.866,123.812 237.698,119.212"/>
<polyline fill="none" stroke="#999999" stroke-width="1" points="529.431,389.65 504.677,369.674 486.586,392.383 511.562,409.88 529.431,389.65"/>
<polyline fill="none" stroke="#999999" stroke-width="1" points="468.336,564.714 470.83,545.713 449.442,546.927 449.595,568.156 468.336,564.714"/>
<polyline fill="none" stroke="#999999" stroke-width="1" points="470.83,545.713 474.152,524.205 451.084,524.586 449.442,546.927 470.83,545.713"/>
<polyline fill="none" stroke="#999999" stroke-width="1" points="474.152,524.205 478.746,502.592 454.025,500.908 451.084,524.586 474.152,524.205"/>
<polyline fill="none" stroke="#999999" stroke-width="1" points="504.677,369.674 520.754,348.828 502.495,325.786 480.853,346.804 504.677,369.674"/>
<polyline fill="none" stroke="#999999" stroke-width="1" points="520.754,348.828 535.982,333.802 524.462,313.891 502.495,325.786 520.754,348.828"/>
<polyline fill="none" stroke="#999999" stroke-width="1" points="478.746,502.592 483.84,479.781 457.223,475.317 454.025,500.908 478.746,502.592"/>
<polyline fill="none" stroke="#999999" stroke-width="1" points="483.84,479.781 490.658,455.998 462.566,447.639 457.223,475.317 483.84,479.781"/>
<polyline fill="none" stroke="#999999" stroke-width="1" points="490.658,455.998 499.195,432.299 470.926,418.647 462.566,447.639 490.658,455.998"/>
<polyline fill="none" stroke="#999999" stroke-width="1" points="499.195,432.299 511.562,409.88 486.586,392.383 470.926,418.647 499.195,432.299"/>
<polyline fill="none" stroke="#999999" stroke-width="1" points="475.97,204.671 465.021,183.603 443.152,188.317 451.555,217.039 475.97,204.671"/>
<polyline fill="none" stroke="#999999" stroke-width="1" points="488.844,227.123 475.97,204.671 451.555,217.039 470.354,242.63 488.844,227.123"/>
<polyline fill="none" stroke="#999999" stroke-width="1" points="258.49,636.594 276.128,636.84 275.22,622.129 262.175,617.243 258.49,636.594"/>
<polyline fill="none" stroke="#999999" stroke-width="1" points="235.734,635.235 258.49,636.594 262.175,617.243 243.355,611.674 235.734,635.235"/>
<polyline fill="none" stroke="#999999" stroke-width="1" points="215.543,622.019 235.734,635.235 243.355,611.674 226.05,603.657 215.543,622.019"/>
<polyline fill="none" stroke="#999999" stroke-width="1" points="197.801,609.205 215.543,622.019 226.05,603.657 210.592,591.503 197.801,609.205"/>
<polyline fill="none" stroke="#999999" stroke-width="1" points="180.735,595.356 197.801,609.205 210.592,591.503 193.938,577.956 180.735,595.356"/>
<polyline fill="none" stroke="#999999" stroke-width="1" points="366.604,622.955 392.177,611.051 385.858,585.172 360.354,590.569 366.604,622.955"/>
<polyline fill="none" stroke="#999999" stroke-width="1" points="141.785,575.562 152.724,593.536 167.743,579.229 157.607,560.461 141.785,575.562"/>
<polyline fill="none" stroke="#999999" stroke-width="1" points="129.211,558.273 141.785,575.562 157.607,560.461 142.481,541.812 129.211,558.273"/>
<polyline fill="none" stroke="#999999" stroke-width="1" points="103.917,530.51 116.214,542.99 126.359,526.372 110.666,514.087 103.917,530.51"/>
<polyline fill="none" stroke="#999999" stroke-width="1" points="116.214,542.99 129.211,558.273 142.481,541.812 126.359,526.372 116.214,542.99"/>
<polyline fill="none" stroke="#999999" stroke-width="1" points="233.335,139.385 225.584,158.547 248.384,167.948 254.686,144.475 233.335,139.385"/>
<polyline fill="none" stroke="#999999" stroke-width="1" points="225.584,158.547 215.006,176.071 233.849,185.428 248.384,167.948 225.584,158.547"/>
<polyline fill="none" stroke="#999999" stroke-width="1" points="215.006,176.071 204.758,193.169 223.378,202.437 233.849,185.428 215.006,176.071"/>
<polyline fill="none" stroke="#999999" stroke-width="1" points="204.758,193.169 195.229,210.101 213.359,219.637 223.378,202.437 204.758,193.169"/>
<polyline fill="none" stroke="#999999" stroke-width="1" points="195.229,210.101 185.651,227.195 202.776,237.682 213.359,219.637 195.229,210.101"/>
<polyline fill="none" stroke="#999999" stroke-width="1" points="185.651,227.195 176.009,243.154 190.142,255.152 202.776,237.682 185.651,227.195"/>
<polyline fill="none" stroke="#999999" stroke-width="1" points="176.009,243.154 167.424,255.545 173.227,273.445 190.142,255.152 176.009,243.154"/>
<polyline fill="none" stroke="#999999" stroke-width="1" points="310.222,123.032 281.849,124.678 278.54,147.249 304.647,151.761 310.222,123.032"/>
<polyline fill="none" stroke="#999999" stroke-width="1" points="281.849,124.678 258.866,123.812 254.686,144.475 278.54,147.249 281.849,124.678"/>
<polyline fill="none" stroke="#999999" stroke-width="1" points="514.709,263.587 515.076,241.369 498.379,243.138 491.69,260.389 514.709,263.587"/>
<polyline fill="none" stroke="#999999" stroke-width="1" points="498.379,243.138 488.844,227.123 470.354,242.63 491.69,260.389 498.379,243.138"/>
<polyline fill="none" stroke="#999999" stroke-width="1" points="116.955,495.34 110.666,514.087 126.359,526.372 136.077,506.599 116.955,495.34"/>
<polyline fill="none" stroke="#999999" stroke-width="1" points="122.875,473.694 116.955,495.34 136.077,506.599 144.579,484.367 122.875,473.694"/>
<polyline fill="none" stroke="#999999" stroke-width="1" points="128.328,451.342 122.875,473.694 144.579,484.367 151.817,459.218 128.328,451.342"/>
<polyline fill="none" stroke="#999999" stroke-width="1" points="132.901,427.47 128.328,451.342 151.817,459.218 157.513,432.336 132.901,427.47"/>
<polyline fill="none" stroke="#999999" stroke-width="1" points="136.138,402.757 132.901,427.47 157.513,432.336 160.11,404.265 136.138,402.757"/>
<polyline fill="none" stroke="#999999" stroke-width="1" points="136.819,379.003 136.138,402.757 160.11,404.265 158.163,376.776 136.819,379.003"/>
<polyline fill="none" stroke="#999999" stroke-width="1" points="135.149,358.611 136.819,379.003 158.163,376.776 152.912,352.062 135.149,358.611"/>
<polyline fill="none" stroke="#999999" stroke-width="1" points="132.342,345.119 135.149,358.611 152.912,352.062 141.099,336.065 132.342,345.119"/>
<polyline fill="none" stroke="#999999" stroke-width="1" points="339.173,133.255 310.222,123.032 304.647,151.761 334.804,163.894 339.173,133.255"/>
<polyline fill="none" stroke="#999999" stroke-width="1" points="387.267,136.368 365.552,136.26 367.614,161.891 394.212,157.022 387.267,136.368"/>
<polyline fill="none" stroke="#999999" stroke-width="1" points="365.552,136.26 339.173,133.255 334.804,163.894 367.614,161.891 365.552,136.26"/>
<polyline fill="none" stroke="#999999" stroke-width="1" points="515.634,288.499 514.709,263.587 491.69,260.389 483.318,292.201 515.634,288.499"/>
<polyline fill="none" stroke="#999999" stroke-width="1" points="524.462,313.891 515.634,288.499 483.318,292.201 502.495,325.786 524.462,313.891"/>
<polyline fill="none" stroke="#999999" stroke-width="1" points="337.457,622.445 366.604,622.955 360.354,590.569 332.711,592.9 337.457,622.445"/>
<polyline fill="none" stroke="#999999" stroke-width="1" points="173.227,273.445 163.271,298.328 184.962,312.898 196.079,288.857 173.227,273.445"/>
<polyline fill="none" stroke="#999999" stroke-width="1" points="163.271,298.328 153.407,320.375 174.03,340.202 184.962,312.898 163.271,298.328"/>
<polyline fill="none" stroke="#999999" stroke-width="1" points="153.407,320.375 141.099,336.065 152.912,352.062 174.03,340.202 153.407,320.375"/>
<polyline fill="none" stroke="#999999" stroke-width="1" points="429.91,573.172 449.595,568.156 449.442,546.927 427.931,550.62 429.91,573.172"/>
<polyline fill="none" stroke="#999999" stroke-width="1" points="408.649,579.262 429.91,573.172 427.931,550.62 405.564,554.698 408.649,579.262"/>
<polyline fill="none" stroke="#999999" stroke-width="1" points="385.858,585.172 408.649,579.262 405.564,554.698 382.059,558.785 385.858,585.172"/>
<polyline fill="none" stroke="#999999" stroke-width="1" points="180.735,595.356 193.938,577.956 179.906,567.259 167.743,579.229 180.735,595.356"/>
<polyline fill="none" stroke="#999999" stroke-width="1" points="193.938,577.956 210.592,591.503 223.934,575.215 203.941,558.267 193.938,577.956"/>
<polyline fill="none" stroke="#999999" stroke-width="1" points="360.354,590.569 385.858,585.172 382.059,558.785 356.452,560.849 360.354,590.569"/>
<polyline fill="none" stroke="#999999" stroke-width="1" points="157.607,560.461 167.743,579.229 179.906,567.259 178.038,544.592 157.607,560.461"/>
<polyline fill="none" stroke="#999999" stroke-width="1" points="203.941,558.267 178.038,544.592 179.906,567.259 193.938,577.956 203.941,558.267"/>
<polyline fill="none" stroke="#999999" stroke-width="1" points="126.359,526.372 142.481,541.812 156.011,522.356 136.077,506.599 126.359,526.372"/>
<polyline fill="none" stroke="#999999" stroke-width="1" points="142.481,541.812 157.607,560.461 178.038,544.592 156.011,522.356 142.481,541.812"/>
<polyline fill="none" stroke="#999999" stroke-width="1" points="278.54,147.249 254.686,144.475 248.384,167.948 272.979,168.081 278.54,147.249"/>
<polyline fill="none" stroke="#999999" stroke-width="1" points="304.647,151.761 278.54,147.249 272.979,168.081 295.165,173.199 304.647,151.761"/>
<polyline fill="none" stroke="#999999" stroke-width="1" points="144.579,484.367 136.077,506.599 156.011,522.356 167.546,497.959 144.579,484.367"/>
<polyline fill="none" stroke="#999999" stroke-width="1" points="151.817,459.218 144.579,484.367 167.546,497.959 177.239,470.456 151.817,459.218"/>
<polyline fill="none" stroke="#999999" stroke-width="1" points="157.513,432.336 151.817,459.218 177.239,470.456 184.814,439.316 157.513,432.336"/>
<polyline fill="none" stroke="#999999" stroke-width="1" points="449.442,546.927 451.084,524.586 427.368,526.894 427.931,550.62 449.442,546.927"/>
<polyline fill="none" stroke="#999999" stroke-width="1" points="451.084,524.586 454.025,500.908 427.704,501.424 427.368,526.894 451.084,524.586"/>
<polyline fill="none" stroke="#999999" stroke-width="1" points="454.025,500.908 457.223,475.317 427.337,472.93 427.704,501.424 454.025,500.908"/>
<polyline fill="none" stroke="#999999" stroke-width="1" points="457.223,475.317 462.566,447.639 430.678,440.823 427.337,472.93 457.223,475.317"/>
<polyline fill="none" stroke="#999999" stroke-width="1" points="462.566,447.639 470.926,418.647 432.706,401.913 430.678,440.823 462.566,447.639"/>
<polyline fill="none" stroke="#999999" stroke-width="1" points="312.64,625.275 337.457,622.445 332.711,592.9 303.917,595.578 312.64,625.275"/>
<polyline fill="none" stroke="#999999" stroke-width="1" points="292.709,632 312.64,625.275 303.917,595.578 285.62,612.182 292.709,632"/>
<polyline fill="none" stroke="#999999" stroke-width="1" points="262.175,617.243 275.22,622.129 285.62,612.182 269.064,599.185 262.175,617.243"/>
<polyline fill="none" stroke="#999999" stroke-width="1" points="243.355,611.674 262.175,617.243 269.064,599.185 248.327,590.571 243.355,611.674"/>
<polyline fill="none" stroke="#999999" stroke-width="1" points="210.592,591.503 226.05,603.657 232.77,589.815 223.934,575.215 210.592,591.503"/>
<polyline fill="none" stroke="#999999" stroke-width="1" points="226.05,603.657 243.355,611.674 248.327,590.571 232.77,589.815 226.05,603.657"/>
<polyline fill="none" stroke="#999999" stroke-width="1" points="470.926,418.647 486.586,392.383 458.331,371.445 432.706,401.913 470.926,418.647"/>
<polyline fill="none" stroke="#999999" stroke-width="1" points="504.677,369.674 480.853,346.804 458.331,371.445 486.586,392.383 504.677,369.674"/>
<polyline fill="none" stroke="#999999" stroke-width="1" points="480.853,346.804 502.495,325.786 483.318,292.201 456.634,319.527 480.853,346.804"/>
<polyline fill="none" stroke="#999999" stroke-width="1" points="173.227,273.445 196.079,288.857 209.871,268.643 190.142,255.152 173.227,273.445"/>
<polyline fill="none" stroke="#999999" stroke-width="1" points="160.11,404.265 157.513,432.336 184.814,439.316 188.081,405.355 160.11,404.265"/>
<polyline fill="none" stroke="#999999" stroke-width="1" points="491.69,260.389 470.354,242.63 449.8,265.435 483.318,292.201 491.69,260.389"/>
<polyline fill="none" stroke="#999999" stroke-width="1" points="470.354,242.63 451.555,217.039 417.809,232.193 449.8,265.435 470.354,242.63"/>
<polyline fill="none" stroke="#999999" stroke-width="1" points="451.555,217.039 443.152,188.317 411.379,185.494 417.809,232.193 451.555,217.039"/>
<polyline fill="none" stroke="#999999" stroke-width="1" points="334.804,163.894 304.647,151.761 295.165,173.199 315.754,182.967 334.804,163.894"/>
<polyline fill="none" stroke="#999999" stroke-width="1" points="394.212,157.022 367.614,161.891 375.889,190.389 411.379,185.494 394.212,157.022"/>
<polyline fill="none" stroke="#999999" stroke-width="1" points="367.614,161.891 334.804,163.894 346.734,191.896 375.889,190.389 367.614,161.891"/>
<polyline fill="none" stroke="#999999" stroke-width="1" points="158.163,376.776 160.11,404.265 188.081,405.355 182.453,371.854 158.163,376.776"/>
<polyline fill="none" stroke="#999999" stroke-width="1" points="152.912,352.062 158.163,376.776 182.453,371.854 174.03,340.202 152.912,352.062"/>
<polyline fill="none" stroke="#999999" stroke-width="1" points="332.711,592.9 360.354,590.569 356.452,560.849 328.835,562.609 332.711,592.9"/>
<polyline fill="none" stroke="#999999" stroke-width="1" points="223.378,202.437 213.359,219.637 232.806,229.808 241.878,211.431 223.378,202.437"/>
<polyline fill="none" stroke="#999999" stroke-width="1" points="233.849,185.428 223.378,202.437 241.878,211.431 249.243,195.08 233.849,185.428"/>
<polyline fill="none" stroke="#999999" stroke-width="1" points="248.384,167.948 233.849,185.428 249.243,195.08 255.761,182.804 248.384,167.948"/>
<polyline fill="none" stroke="#999999" stroke-width="1" points="213.359,219.637 202.776,237.682 221.952,248.747 232.806,229.808 213.359,219.637"/>
<polyline fill="none" stroke="#999999" stroke-width="1" points="202.776,237.682 190.142,255.152 209.871,268.643 221.952,248.747 202.776,237.682"/>
<polyline fill="none" stroke="#999999" stroke-width="1" points="196.079,288.857 184.962,312.898 206.374,326.329 219.157,304.85 196.079,288.857"/>
<polyline fill="none" stroke="#999999" stroke-width="1" points="184.962,312.898 174.03,340.202 196.045,344.362 206.374,326.329 184.962,312.898"/>
<polyline fill="none" stroke="#999999" stroke-width="1" points="196.045,344.362 174.03,340.202 182.453,371.854 207.493,367.162 196.045,344.362"/>
<polyline fill="none" stroke="#999999" stroke-width="1" points="206.374,326.329 196.045,344.362 207.493,367.162 226.528,346.443 206.374,326.329"/>
<polyline fill="none" stroke="#999999" stroke-width="1" points="209.871,268.643 196.079,288.857 219.157,304.85 232.128,282.607 209.871,268.643"/>
<polyline fill="none" stroke="#999999" stroke-width="1" points="219.157,304.85 206.374,326.329 226.528,346.443 242.862,322.4 219.157,304.85"/>
<polyline fill="none" stroke="#999999" stroke-width="1" points="405.564,554.698 427.931,550.62 427.368,526.894 403.618,530.125 405.564,554.698"/>
<polyline fill="none" stroke="#999999" stroke-width="1" points="382.059,558.785 405.564,554.698 403.618,530.125 380.254,532.375 382.059,558.785"/>
<polyline fill="none" stroke="#999999" stroke-width="1" points="248.384,167.948 255.761,182.804 270.398,185.562 272.979,168.081 248.384,167.948"/>
<polyline fill="none" stroke="#999999" stroke-width="1" points="221.952,248.747 209.871,268.643 232.128,282.607 243.705,260.387 221.952,248.747"/>
<polyline fill="none" stroke="#999999" stroke-width="1" points="255.761,182.804 249.243,195.08 265.486,200.658 270.398,185.562 255.761,182.804"/>
<polyline fill="none" stroke="#999999" stroke-width="1" points="232.806,229.808 221.952,248.747 243.705,260.387 254.367,239.337 232.806,229.808"/>
<polyline fill="none" stroke="#999999" stroke-width="1" points="241.878,211.431 232.806,229.808 254.367,239.337 262.385,218.292 241.878,211.431"/>
<polyline fill="none" stroke="#999999" stroke-width="1" points="249.243,195.08 241.878,211.431 262.385,218.292 265.486,200.658 249.243,195.08"/>
<polyline fill="none" stroke="#999999" stroke-width="1" points="356.452,560.849 382.059,558.785 380.254,532.375 353.897,528.117 356.452,560.849"/>
<polyline fill="none" stroke="#999999" stroke-width="1" points="375.889,190.389 346.734,191.896 347.236,218.147 377.463,223.737 375.889,190.389"/>
<polyline fill="none" stroke="#999999" stroke-width="1" points="411.379,185.494 375.889,190.389 377.463,223.737 417.809,232.193 411.379,185.494"/>
<polyline fill="none" stroke="#999999" stroke-width="1" points="295.165,173.199 272.979,168.081 270.398,185.562 287.453,191.157 295.165,173.199"/>
<polyline fill="none" stroke="#999999" stroke-width="1" points="167.546,497.959 156.011,522.356 178.038,544.592 192.569,515.666 167.546,497.959"/>
<polyline fill="none" stroke="#999999" stroke-width="1" points="177.239,470.456 167.546,497.959 192.569,515.666 204.78,485.331 177.239,470.456"/>
<polyline fill="none" stroke="#999999" stroke-width="1" points="178.038,544.592 203.941,558.267 219.515,535.274 192.569,515.666 178.038,544.592"/>
<polyline fill="none" stroke="#999999" stroke-width="1" points="203.941,558.267 223.934,575.215 246.756,561.311 219.515,535.274 203.941,558.267"/>
<polyline fill="none" stroke="#999999" stroke-width="1" points="223.934,575.215 232.77,589.815 248.327,590.571 246.756,561.311 223.934,575.215"/>
<polyline fill="none" stroke="#999999" stroke-width="1" points="269.064,599.185 285.62,612.182 303.917,595.578 278.113,576.612 269.064,599.185"/>
<polyline fill="none" stroke="#999999" stroke-width="1" points="248.327,590.571 269.064,599.185 278.113,576.612 246.756,561.311 248.327,590.571"/>
<polyline fill="none" stroke="#999999" stroke-width="1" points="303.917,595.578 332.711,592.9 328.835,562.609 308.525,569.628 303.917,595.578"/>
<polyline fill="none" stroke="#999999" stroke-width="1" points="480.853,346.804 456.634,319.527 432.402,344.759 458.331,371.445 480.853,346.804"/>
<polyline fill="none" stroke="#999999" stroke-width="1" points="328.835,562.609 356.452,560.849 353.897,528.117 316.904,524.912 328.835,562.609"/>
<polyline fill="none" stroke="#999999" stroke-width="1" points="427.368,526.894 427.704,501.424 401.176,504.484 403.618,530.125 427.368,526.894"/>
<polyline fill="none" stroke="#999999" stroke-width="1" points="427.704,501.424 427.337,472.93 391.626,473.695 401.176,504.484 427.704,501.424"/>
<polyline fill="none" stroke="#999999" stroke-width="1" points="427.337,472.93 430.678,440.823 399.325,440.891 391.626,473.695 427.337,472.93"/>
<polyline fill="none" stroke="#999999" stroke-width="1" points="346.734,191.896 334.804,163.894 315.754,182.967 328.79,195.75 346.734,191.896"/>
<polyline fill="none" stroke="#999999" stroke-width="1" points="430.678,440.823 432.706,401.913 395.801,410.738 399.325,440.891 430.678,440.823"/>
<polyline fill="none" stroke="#999999" stroke-width="1" points="315.754,182.967 295.165,173.199 287.453,191.157 303.79,201.989 315.754,182.967"/>
<polyline fill="none" stroke="#999999" stroke-width="1" points="456.634,319.527 483.318,292.201 449.8,265.435 427.619,293.832 456.634,319.527"/>
<polyline fill="none" stroke="#999999" stroke-width="1" points="184.814,439.316 177.239,470.456 204.78,485.331 215.711,450.662 184.814,439.316"/>
<polyline fill="none" stroke="#999999" stroke-width="1" points="182.453,371.854 188.081,405.355 224.944,405.987 207.493,367.162 182.453,371.854"/>
<polyline fill="none" stroke="#999999" stroke-width="1" points="188.081,405.355 184.814,439.316 215.711,450.662 224.944,405.987 188.081,405.355"/>
<polyline fill="none" stroke="#999999" stroke-width="1" points="449.8,265.435 417.809,232.193 398.036,270.103 427.619,293.832 449.8,265.435"/>
<polyline fill="none" stroke="#999999" stroke-width="1" points="270.398,185.562 265.486,200.658 280.308,204.269 287.453,191.157 270.398,185.562"/>
<polyline fill="none" stroke="#999999" stroke-width="1" points="265.486,200.658 262.385,218.292 288.072,221.445 280.308,204.269 265.486,200.658"/>
<polyline fill="none" stroke="#999999" stroke-width="1" points="262.385,218.292 254.367,239.337 278.825,248.395 288.072,221.445 262.385,218.292"/>
<polyline fill="none" stroke="#999999" stroke-width="1" points="254.367,239.337 243.705,260.387 268.019,272.537 278.825,248.395 254.367,239.337"/>
<polyline fill="none" stroke="#999999" stroke-width="1" points="243.705,260.387 232.128,282.607 256.52,297.268 268.019,272.537 243.705,260.387"/>
<polyline fill="none" stroke="#999999" stroke-width="1" points="232.128,282.607 219.157,304.85 242.862,322.4 256.52,297.268 232.128,282.607"/>
<polyline fill="none" stroke="#999999" stroke-width="1" points="278.113,576.612 303.917,595.578 308.525,569.628 292.08,550.045 278.113,576.612"/>
<polyline fill="none" stroke="#999999" stroke-width="1" points="246.756,561.311 278.113,576.612 292.08,550.045 263.545,528.513 246.756,561.311"/>
<polyline fill="none" stroke="#999999" stroke-width="1" points="328.79,195.75 315.754,182.967 303.79,201.989 323.526,212.659 328.79,195.75"/>
<polyline fill="none" stroke="#999999" stroke-width="1" points="346.734,191.896 328.79,195.75 323.526,212.659 347.236,218.147 346.734,191.896"/>
<polyline fill="none" stroke="#999999" stroke-width="1" points="380.254,532.375 403.618,530.125 401.176,504.484 381.118,509.948 380.254,532.375"/>
<polyline fill="none" stroke="#999999" stroke-width="1" points="303.79,201.989 287.453,191.157 280.308,204.269 288.072,221.445 303.79,201.989"/>
<polyline fill="none" stroke="#999999" stroke-width="1" points="456.634,319.527 427.619,293.832 405.437,320.386 432.402,344.759 456.634,319.527"/>
<polyline fill="none" stroke="#999999" stroke-width="1" points="353.897,528.117 380.254,532.375 381.118,509.948 361.925,492.985 353.897,528.117"/>
<polyline fill="none" stroke="#999999" stroke-width="1" points="328.835,562.609 316.904,524.912 292.08,550.045 308.525,569.628 328.835,562.609"/>
<polyline fill="none" stroke="#999999" stroke-width="1" points="316.904,524.912 353.897,528.117 361.925,492.985 327.245,483.393 316.904,524.912"/>
<polyline fill="none" stroke="#999999" stroke-width="1" points="204.78,485.331 192.569,515.666 219.515,535.274 234.159,505.522 204.78,485.331"/>
<polyline fill="none" stroke="#999999" stroke-width="1" points="219.515,535.274 246.756,561.311 263.545,528.513 234.159,505.522 219.515,535.274"/>
<polyline fill="none" stroke="#999999" stroke-width="1" points="292.08,550.045 316.904,524.912 280.933,496.719 263.545,528.513 292.08,550.045"/>
<polyline fill="none" stroke="#999999" stroke-width="1" points="215.711,450.662 204.78,485.331 234.159,505.522 248.305,472.016 215.711,450.662"/>
<polyline fill="none" stroke="#999999" stroke-width="1" points="398.036,270.103 417.809,232.193 377.463,223.737 368.114,255.027 398.036,270.103"/>
<polyline fill="none" stroke="#999999" stroke-width="1" points="427.619,293.832 398.036,270.103 377.889,299.208 405.437,320.386 427.619,293.832"/>
<polyline fill="none" stroke="#999999" stroke-width="1" points="458.331,371.445 432.402,344.759 407.706,368.319 432.706,401.913 458.331,371.445"/>
<polyline fill="none" stroke="#999999" stroke-width="1" points="224.944,405.987 215.711,450.662 248.305,472.016 262.538,434.877 224.944,405.987"/>
<polyline fill="none" stroke="#999999" stroke-width="1" points="377.463,223.737 347.236,218.147 339.968,244.691 368.114,255.027 377.463,223.737"/>
<polyline fill="none" stroke="#999999" stroke-width="1" points="234.159,505.522 263.545,528.513 280.933,496.719 248.305,472.016 234.159,505.522"/>
<polyline fill="none" stroke="#999999" stroke-width="1" points="226.528,346.443 207.493,367.162 224.944,405.987 251.127,373.942 226.528,346.443"/>
<polyline fill="none" stroke="#999999" stroke-width="1" points="242.862,322.4 226.528,346.443 251.127,373.942 270.941,342.957 242.862,322.4"/>
<polyline fill="none" stroke="#999999" stroke-width="1" points="381.118,509.948 401.176,504.484 391.626,473.695 361.925,492.985 381.118,509.948"/>
<polyline fill="none" stroke="#999999" stroke-width="1" points="395.801,410.738 432.706,401.913 407.706,368.319 381.879,382.859 395.801,410.738"/>
<polyline fill="none" stroke="#999999" stroke-width="1" points="391.626,473.695 399.325,440.891 379.122,437.703 368.625,453.766 391.626,473.695"/>
<polyline fill="none" stroke="#999999" stroke-width="1" points="323.526,212.659 303.79,201.989 288.072,221.445 313.961,234.624 323.526,212.659"/>
<polyline fill="none" stroke="#999999" stroke-width="1" points="347.236,218.147 323.526,212.659 313.961,234.624 339.968,244.691 347.236,218.147"/>
<polyline fill="none" stroke="#999999" stroke-width="1" points="256.52,297.268 242.862,322.4 270.941,342.957 284.095,312.281 256.52,297.268"/>
<polyline fill="none" stroke="#999999" stroke-width="1" points="268.019,272.537 256.52,297.268 284.095,312.281 293.764,284.816 268.019,272.537"/>
<polyline fill="none" stroke="#999999" stroke-width="1" points="278.825,248.395 268.019,272.537 293.764,284.816 304.278,259.7 278.825,248.395"/>
<polyline fill="none" stroke="#999999" stroke-width="1" points="288.072,221.445 278.825,248.395 304.278,259.7 313.961,234.624 288.072,221.445"/>
<polyline fill="none" stroke="#999999" stroke-width="1" points="316.904,524.912 327.245,483.393 294.976,461.436 280.933,496.719 316.904,524.912"/>
<polyline fill="none" stroke="#999999" stroke-width="1" points="391.626,473.695 368.625,453.766 355.258,467.446 361.925,492.985 391.626,473.695"/>
<polyline fill="none" stroke="#999999" stroke-width="1" points="327.245,483.393 361.925,492.985 355.258,467.446 335.648,453.289 327.245,483.393"/>
<polyline fill="none" stroke="#999999" stroke-width="1" points="379.122,437.703 399.325,440.891 395.801,410.738 370.557,418.208 379.122,437.703"/>
<polyline fill="none" stroke="#999999" stroke-width="1" points="368.625,453.766 379.122,437.703 370.557,418.208 350.733,432.789 368.625,453.766"/>
<polyline fill="none" stroke="#999999" stroke-width="1" points="398.036,270.103 368.114,255.027 354.511,281.264 377.889,299.208 398.036,270.103"/>
<polyline fill="none" stroke="#999999" stroke-width="1" points="368.114,255.027 339.968,244.691 329.885,270.262 354.511,281.264 368.114,255.027"/>
<polyline fill="none" stroke="#999999" stroke-width="1" points="432.402,344.759 405.437,320.386 383.837,343.744 407.706,368.319 432.402,344.759"/>
<polyline fill="none" stroke="#999999" stroke-width="1" points="395.801,410.738 381.879,382.859 356.571,391.604 370.557,418.208 395.801,410.738"/>
<polyline fill="none" stroke="#999999" stroke-width="1" points="381.879,382.859 407.706,368.319 383.837,343.744 370.875,362.644 381.879,382.859"/>
<polyline fill="none" stroke="#999999" stroke-width="1" points="405.437,320.386 377.889,299.208 352.863,325.6 383.837,343.744 405.437,320.386"/>
<polyline fill="none" stroke="#999999" stroke-width="1" points="248.305,472.016 280.933,496.719 294.976,461.436 262.538,434.877 248.305,472.016"/>
<polyline fill="none" stroke="#999999" stroke-width="1" points="355.258,467.446 368.625,453.766 350.733,432.789 335.648,453.289 355.258,467.446"/>
<polyline fill="none" stroke="#999999" stroke-width="1" points="224.944,405.987 262.538,434.877 282.094,400.381 251.127,373.942 224.944,405.987"/>
<polyline fill="none" stroke="#999999" stroke-width="1" points="270.941,342.957 251.127,373.942 282.094,400.381 308.387,366.276 270.941,342.957"/>
<polyline fill="none" stroke="#999999" stroke-width="1" points="339.968,244.691 313.961,234.624 304.278,259.7 329.885,270.262 339.968,244.691"/>
<polyline fill="none" stroke="#999999" stroke-width="1" points="304.278,259.7 293.764,284.816 320.328,295.074 329.885,270.262 304.278,259.7"/>
<polyline fill="none" stroke="#999999" stroke-width="1" points="354.511,281.264 329.885,270.262 320.328,295.074 342.567,300.646 354.511,281.264"/>
<polyline fill="none" stroke="#999999" stroke-width="1" points="293.764,284.816 284.095,312.281 316.418,324.808 320.328,295.074 293.764,284.816"/>
<polyline fill="none" stroke="#999999" stroke-width="1" points="377.889,299.208 354.511,281.264 342.567,300.646 352.863,325.6 377.889,299.208"/>
<polyline fill="none" stroke="#999999" stroke-width="1" points="284.095,312.281 270.941,342.957 308.387,366.276 316.418,324.808 284.095,312.281"/>
<polyline fill="none" stroke="#999999" stroke-width="1" points="342.567,300.646 320.328,295.074 316.418,324.808 352.863,325.6 342.567,300.646"/>
<polyline fill="none" stroke="#999999" stroke-width="1" points="370.875,362.644 383.837,343.744 352.863,325.6 346.909,361.33 370.875,362.644"/>
<polyline fill="none" stroke="#999999" stroke-width="1" points="356.571,391.604 381.879,382.859 370.875,362.644 346.909,361.33 356.571,391.604"/>
<polyline fill="none" stroke="#999999" stroke-width="1" points="327.245,483.393 335.648,453.289 310.608,429.951 294.976,461.436 327.245,483.393"/>
<polyline fill="none" stroke="#999999" stroke-width="1" points="335.648,453.289 350.733,432.789 329.715,404.698 310.608,429.951 335.648,453.289"/>
<polyline fill="none" stroke="#999999" stroke-width="1" points="350.733,432.789 370.557,418.208 356.571,391.604 329.715,404.698 350.733,432.789"/>
<polyline fill="none" stroke="#999999" stroke-width="1" points="262.538,434.877 294.976,461.436 310.608,429.951 282.094,400.381 262.538,434.877"/>
<polyline fill="none" stroke="#999999" stroke-width="1" points="352.863,325.6 316.418,324.808 308.387,366.276 346.909,361.33 352.863,325.6"/>
<polyline fill="none" stroke="#999999" stroke-width="1" points="282.094,400.381 310.608,429.951 329.715,404.698 308.387,366.276 282.094,400.381"/>
<polyline fill="none" stroke="#999999" stroke-width="1" points="329.715,404.698 356.571,391.604 346.909,361.33 308.387,366.276 329.715,404.698"/>
<polygon fill="#df3737" points="93.5034,836.987 85.349,833.725 85.349,834.68"/>
<polygon fill="#c53131" points="85.349,833.725 77.1946,830.463 77.1946,831.418"/>
<polygon fill="#ed3b3b" points="85.349,834.68 77.1946,832.374 77.1946,831.418"/>
<polygon fill="#d23434" points="85.349,833.725 81.2718,832.572 85.349,834.203"/>
<polygon fill="#d93636" points="81.2718,832.572 77.1946,831.418 81.2718,833.049"/>
<polygon fill="#e63939" points="85.349,834.203 85.349,834.68 81.2718,833.049"/>
<polygon fill="#db3636" points="81.2718,832.572 81.2718,833.049 85.349,834.203"/>
<polygon fill="#581616" points="93.5034,836.987 85.349,839.293 85.349,840.248"/>
<polygon fill="#6e1b1b" points="85.349,839.293 77.1946,841.599 77.1946,842.555"/>
<polygon fill="#581616" points="85.349,840.248 77.1946,843.51 77.1946,842.555"/>
<polygon fill="#601818" points="85.349,839.293 77.1946,842.555 85.349,840.248"/>
<polygon fill="#37df37" points="50.0134,793.497 52.3198,801.651 53.2752,801.651"/>
<polygon fill="#3bed3b" points="52.3198,801.651 54.6262,809.805 55.5816,809.805"/>
<polygon fill="#31c531" points="53.2752,801.651 56.5369,809.805 55.5816,809.805"/>
<polygon fill="#39e639" points="52.3198,801.651 53.9507,805.728 52.7975,801.651"/>
<polygon fill="#36d936" points="53.9507,805.728 55.5816,809.805 54.4284,805.728"/>
<polygon fill="#34d234" points="52.7975,801.651 53.2752,801.651 54.4284,805.728"/>
<polygon fill="#36db36" points="53.9507,805.728 54.4284,805.728 52.7975,801.651"/>
<polygon fill="#165816" points="50.0134,793.497 46.7517,801.651 47.707,801.651"/>
<polygon fill="#165816" points="46.7517,801.651 43.4899,809.805 44.4453,809.805"/>
<polygon fill="#1b6e1b" points="47.707,801.651 45.4006,809.805 44.4453,809.805"/>
<polygon fill="#186018" points="46.7517,801.651 44.4453,809.805 47.707,801.651"/>
<polygon fill="#f93e3e" points="50.0134,835.321 50.0134,836.987 77.1946,835.321"/>
<polygon fill="#862121" points="50.0134,838.652 56.8087,838.652 56.8087,838.236"/>
<polygon fill="#862121" points="56.8087,838.652 63.604,838.652 63.604,838.236"/>
<polygon fill="#a22828" points="56.8087,838.236 63.604,837.819 63.604,838.236"/>
<polygon fill="#902424" points="56.8087,838.652 63.604,838.236 56.8087,838.236"/>
<polygon fill="#862121" points="63.604,838.652 70.3993,838.652 70.3993,838.236"/>
<polygon fill="#862121" points="70.3993,838.652 77.1946,838.652 77.1946,838.236"/>
<polygon fill="#a22828" points="70.3993,838.236 77.1946,837.819 77.1946,838.236"/>
<polygon fill="#902424" points="70.3993,838.652 77.1946,838.236 70.3993,838.236"/>
<polygon fill="#be2f2f" points="63.604,837.819 70.3993,837.403 70.3993,837.819"/>
<polygon fill="#da3636" points="70.3993,837.403 77.1946,836.987 77.1946,837.403"/>
<polygon fill="#be2f2f" points="70.3993,837.819 77.1946,837.819 77.1946,837.403"/>
<polygon fill="#c73131" points="70.3993,837.403 77.1946,837.403 70.3993,837.819"/>
<polygon fill="#902424" points="63.604,838.652 70.3993,838.236 63.604,838.236"/>
<polygon fill="#ac2b2b" points="70.3993,838.236 77.1946,837.819 70.3993,837.819"/>
<polygon fill="#ac2b2b" points="63.604,838.236 63.604,837.819 70.3993,837.819"/>
<polygon fill="#a22828" points="70.3993,838.236 70.3993,837.819 63.604,838.236"/>
<polygon fill="#3ef93e" points="51.6792,836.987 51.6792,809.805 50.0134,809.805"/>
<polygon fill="#218621" points="48.3477,836.987 48.7641,836.987 48.3477,830.191"/>
<polygon fill="#28a228" points="48.7641,836.987 49.1806,836.987 48.7641,830.191"/>
<polygon fill="#218621" points="48.3477,830.191 48.3477,823.396 48.7641,830.191"/>
<polygon fill="#249024" points="48.7641,836.987 48.7641,830.191 48.3477,830.191"/>
<polygon fill="#2fbe2f" points="49.1806,836.987 49.597,836.987 49.1806,830.191"/>
<polygon fill="#36da36" points="49.597,836.987 50.0134,836.987 49.597,830.191"/>
<polygon fill="#2fbe2f" points="49.1806,830.191 49.1806,823.396 49.597,830.191"/>
<polygon fill="#31c731" points="49.597,836.987 49.597,830.191 49.1806,830.191"/>
<polygon fill="#218621" points="48.3477,823.396 48.3477,816.601 48.7641,823.396"/>
<polygon fill="#218621" points="48.3477,816.601 48.3477,809.805 48.7641,816.601"/>
<polygon fill="#28a228" points="48.7641,823.396 49.1806,823.396 48.7641,816.601"/>
<polygon fill="#249024" points="48.3477,816.601 48.7641,816.601 48.7641,823.396"/>
<polygon fill="#2bac2b" points="49.1806,836.987 49.1806,830.191 48.7641,830.191"/>
<polygon fill="#2bac2b" points="49.1806,830.191 49.1806,823.396 48.7641,823.396"/>
<polygon fill="#249024" points="48.7641,830.191 48.3477,823.396 48.7641,823.396"/>
<polygon fill="#28a228" points="49.1806,830.191 48.7641,823.396 48.7641,830.191"/>
<polygon fill="#f33c3c" points="50.0134,836.987 77.1946,836.987 77.1946,835.321"/>
<polygon fill="#38e338" points="50.0134,836.987 50.0134,830.191 49.597,830.191"/>
<polygon fill="#38e338" points="50.0134,830.191 50.0134,823.396 49.597,823.396"/>
<polygon fill="#31c731" points="49.597,830.191 49.1806,823.396 49.597,823.396"/>
<polygon fill="#36da36" points="50.0134,830.191 49.597,823.396 49.597,830.191"/>
<polygon fill="#38e338" points="50.0134,823.396 50.0134,816.601 49.597,816.601"/>
<polygon fill="#38e338" points="50.0134,816.601 50.0134,809.805 49.597,809.805"/>
<polygon fill="#31c731" points="49.597,816.601 49.1806,809.805 49.597,809.805"/>
<polygon fill="#36da36" points="50.0134,816.601 49.597,809.805 49.597,816.601"/>
<polygon fill="#2bac2b" points="49.1806,823.396 48.7641,816.601 49.1806,816.601"/>
<polygon fill="#249024" points="48.7641,816.601 48.3477,809.805 48.7641,809.805"/>
<polygon fill="#2bac2b" points="49.1806,816.601 49.1806,809.805 48.7641,809.805"/>
<polygon fill="#28a228" points="48.7641,816.601 48.7641,809.805 49.1806,816.601"/>
<polygon fill="#36da36" points="50.0134,823.396 49.597,816.601 49.597,823.396"/>
<polygon fill="#2fbe2f" points="49.597,816.601 49.1806,809.805 49.1806,816.601"/>
<polygon fill="#2fbe2f" points="49.597,823.396 49.1806,823.396 49.1806,816.601"/>
<polygon fill="#31c731" points="49.597,816.601 49.1806,816.601 49.597,823.396"/>
<polygon fill="#e33838" points="50.0134,836.987 50.0134,837.403 56.8087,836.987"/>
<polygon fill="#c73131" points="50.0134,837.403 50.0134,837.819 56.8087,837.403"/>
<polygon fill="#e33838" points="56.8087,836.987 63.604,836.987 56.8087,837.403"/>
<polygon fill="#da3636" points="50.0134,837.403 56.8087,837.403 56.8087,836.987"/>
<polygon fill="#ac2b2b" points="50.0134,837.819 50.0134,838.236 56.8087,837.819"/>
<polygon fill="#902424" points="50.0134,838.236 50.0134,838.652 56.8087,838.236"/>
<polygon fill="#ac2b2b" points="56.8087,837.819 63.604,837.819 56.8087,838.236"/>
<polygon fill="#a22828" points="50.0134,838.236 56.8087,838.236 56.8087,837.819"/>
<polygon fill="#e33838" points="63.604,836.987 70.3993,836.987 63.604,837.403"/>
<polygon fill="#e33838" points="70.3993,836.987 77.1946,836.987 70.3993,837.403"/>
<polygon fill="#c73131" points="63.604,837.403 63.604,837.819 70.3993,837.403"/>
<polygon fill="#da3636" points="70.3993,836.987 70.3993,837.403 63.604,837.403"/>
<polygon fill="#be2f2f" points="50.0134,837.819 56.8087,837.819 56.8087,837.403"/>
<polygon fill="#be2f2f" points="56.8087,837.819 63.604,837.819 63.604,837.403"/>
<polygon fill="#da3636" points="56.8087,837.403 63.604,836.987 63.604,837.403"/>
<polygon fill="#c73131" points="56.8087,837.819 63.604,837.403 56.8087,837.403"/>
<polygon fill="#3cf33c" points="50.0134,836.987 51.6792,836.987 50.0134,809.805"/>
<polygon fill="#f93f3f" points="93.5034,836.987 77.1946,832.374 77.1946,836.987"/>
<polygon fill="#bc2f2f" points="93.5034,836.987 89.4262,836.987 89.4262,838.14"/>
<polygon fill="#c83232" points="89.4262,836.987 85.349,836.987 85.349,838.14"/>
<polygon fill="#ac2b2b" points="89.4262,838.14 85.349,839.293 85.349,838.14"/>
<polygon fill="#ba2e2e" points="89.4262,836.987 85.349,838.14 89.4262,838.14"/>
<polygon fill="#d43535" points="85.349,836.987 81.2718,836.987 81.2718,838.14"/>
<polygon fill="#df3737" points="81.2718,836.987 77.1946,836.987 77.1946,838.14"/>
<polygon fill="#c43131" points="81.2718,838.14 77.1946,839.293 77.1946,838.14"/>
<polygon fill="#d23434" points="81.2718,836.987 77.1946,838.14 81.2718,838.14"/>
<polygon fill="#9c2727" points="85.349,839.293 81.2718,840.446 81.2718,839.293"/>
<polygon fill="#8c2323" points="81.2718,840.446 77.1946,841.599 77.1946,840.446"/>
<polygon fill="#a82a2a" points="81.2718,839.293 77.1946,839.293 77.1946,840.446"/>
<polygon fill="#9a2626" points="81.2718,840.446 77.1946,840.446 81.2718,839.293"/>
<polygon fill="#c63131" points="85.349,836.987 81.2718,838.14 85.349,838.14"/>
<polygon fill="#b62d2d" points="81.2718,838.14 77.1946,839.293 81.2718,839.293"/>
<polygon fill="#aa2a2a" points="85.349,838.14 85.349,839.293 81.2718,839.293"/>
<polygon fill="#b82e2e" points="81.2718,838.14 81.2718,839.293 85.349,838.14"/>
<polygon fill="#3ff93f" points="50.0134,793.497 50.0134,809.805 54.6262,809.805"/>
<polygon fill="#2fbc2f" points="50.0134,793.497 48.8602,797.574 50.0134,797.574"/>
<polygon fill="#2bac2b" points="48.8602,797.574 47.707,801.651 48.8602,801.651"/>
<polygon fill="#32c832" points="50.0134,797.574 50.0134,801.651 48.8602,801.651"/>
<polygon fill="#2eba2e" points="48.8602,797.574 48.8602,801.651 50.0134,797.574"/>
<polygon fill="#279c27" points="47.707,801.651 46.5538,805.728 47.707,805.728"/>
<polygon fill="#238c23" points="46.5538,805.728 45.4006,809.805 46.5538,809.805"/>
<polygon fill="#2aa82a" points="47.707,805.728 47.707,809.805 46.5538,809.805"/>
<polygon fill="#269a26" points="46.5538,805.728 46.5538,809.805 47.707,805.728"/>
<polygon fill="#35d435" points="50.0134,801.651 50.0134,805.728 48.8602,805.728"/>
<polygon fill="#37df37" points="50.0134,805.728 50.0134,809.805 48.8602,809.805"/>
<polygon fill="#31c431" points="48.8602,805.728 47.707,809.805 48.8602,809.805"/>
<polygon fill="#34d234" points="50.0134,805.728 48.8602,809.805 48.8602,805.728"/>
<polygon fill="#2aaa2a" points="47.707,801.651 47.707,805.728 48.8602,801.651"/>
<polygon fill="#2db62d" points="47.707,805.728 47.707,809.805 48.8602,805.728"/>
<polygon fill="#31c631" points="48.8602,801.651 50.0134,801.651 48.8602,805.728"/>
<polygon fill="#2eb82e" points="47.707,805.728 48.8602,805.728 48.8602,801.651"/>
<polygon fill="#3194c5" points="50.0134,836.987 56.5369,836.987 54.6262,832.374"/>
<polygon fill="#3194c5" points="50.0134,836.987 54.6262,832.374 50.0134,830.463"/>
<polygon fill="#206282" points="50.0134,836.987 50.0134,833.725 47.707,834.68"/>
<polygon fill="#267298" points="50.0134,833.725 50.0134,830.463 47.707,831.418"/>
<polygon fill="#1a4f69" points="47.707,834.68 45.4006,832.374 47.707,831.418"/>
<polygon fill="#236a8d" points="50.0134,833.725 48.8602,832.572 48.8602,834.203"/>
<polygon fill="#206080" points="48.8602,832.572 47.707,831.418 47.707,833.049"/>
<polygon fill="#1d5876" points="48.8602,834.203 47.707,834.68 47.707,833.049"/>
<polygon fill="#206181" points="48.8602,832.572 47.707,833.049 48.8602,834.203"/>
<polygon fill="#143d51" points="50.0134,836.987 45.4006,832.374 43.4899,836.987"/>
<polygon fill="#143d51" points="50.0134,836.987 43.4899,836.987 45.4006,841.599"/>
<polygon fill="#143d51" points="50.0134,836.987 45.4006,841.599 50.0134,843.51"/>
<polygon fill="#143d51" points="50.0134,836.987 50.0134,843.51 54.6262,841.599"/>
<polygon fill="#206282" points="50.0134,836.987 52.3198,839.293 53.2752,836.987"/>
<polygon fill="#1a4f69" points="52.3198,839.293 54.6262,841.599 55.5816,839.293"/>
<polygon fill="#267298" points="53.2752,836.987 56.5369,836.987 55.5816,839.293"/>
<polygon fill="#1d5876" points="52.3198,839.293 53.9507,839.293 52.7975,838.14"/>
<polygon fill="#206080" points="53.9507,839.293 55.5816,839.293 54.4284,838.14"/>
<polygon fill="#236a8d" points="52.7975,838.14 53.2752,836.987 54.4284,838.14"/>
<polygon fill="#206181" points="53.9507,839.293 54.4284,838.14 52.7975,838.14"/>
<text fill="#000000" x="50.0134" y="836.987" font-size="14" text-anchor="start" baseline-shift="0" font-family="Courier">z</text>
<polygon fill="#000000" points="708,887 748,887 708,863"/>
<polygon fill="#000000" points="748,887 748,863 708,863"/>
<text fill="#ffff00" x="711.74" y="882.325" font-size="0" text-anchor="start" baseline-shift="0" font-family="Courier">GiD</text>
</g>
</svg>
